<svg width="24" height="24" viewBox="0 0 24 24" fill="none" xmlns="http://www.w3.org/2000/svg">
<g clip-path="url(#clip0_2930_3394)">
<path d="M16.6192 0C16.6751 0 16.7309 0 16.7899 0C16.9269 1.69253 16.2809 2.95719 15.4958 3.87301C14.7254 4.78251 13.6704 5.6646 11.9642 5.53076C11.8504 3.86247 12.4975 2.69161 13.2816 1.77789C14.0087 0.92636 15.3419 0.168621 16.6192 0Z" fill="#656565"/>
<path d="M21.7831 17.6169C21.7831 17.6337 21.7831 17.6485 21.7831 17.6643C21.3036 19.1165 20.6196 20.3612 19.785 21.5162C19.023 22.5648 18.0893 23.976 16.422 23.976C14.9814 23.976 14.0245 23.0496 12.548 23.0243C10.9861 22.999 10.1272 23.7989 8.69921 24.0002C8.53586 24.0002 8.37251 24.0002 8.21232 24.0002C7.16371 23.8485 6.31744 23.018 5.70092 22.2698C3.88298 20.0587 2.47816 17.2027 2.2168 13.5478C2.2168 13.1895 2.2168 12.8323 2.2168 12.4739C2.32745 9.85821 3.59843 7.73148 5.2878 6.70079C6.17938 6.15277 7.40505 5.6859 8.76982 5.89457C9.35472 5.9852 9.95227 6.18544 10.4761 6.38357C10.9724 6.57432 11.5932 6.91262 12.1812 6.8947C12.5796 6.88311 12.9759 6.67549 13.3774 6.529C14.5535 6.10429 15.7065 5.6174 17.2262 5.84609C19.0525 6.12221 20.3488 6.93369 21.1497 8.1857C19.6048 9.16897 18.3833 10.6507 18.592 13.1811C18.7775 15.4796 20.1138 16.8244 21.7831 17.6169Z" fill="#656565"/>
</g>
<defs>
<clipPath id="clip0_2930_3394">
<rect width="24" height="24" fill="white"/>
</clipPath>
</defs>
</svg>
