<svg width="58" height="25" viewBox="0 0 58 25" fill="none" xmlns="http://www.w3.org/2000/svg">
<path d="M10.8871 3.1509C11.5652 2.30265 12.0253 1.16381 11.9041 0C10.9114 0.0493874 9.69997 0.654973 8.99864 1.50378C8.36887 2.23076 7.81154 3.41729 7.95689 4.53228C9.07109 4.62892 10.1845 3.97529 10.8871 3.1509Z" fill="white"/>
<path d="M11.8905 4.74999C10.2722 4.65358 8.8962 5.66844 8.12332 5.66844C7.35011 5.66844 6.16661 4.79859 4.88659 4.82199C3.22058 4.84651 1.67472 5.78847 0.829281 7.28663C-0.90963 10.2837 0.370394 14.7295 2.06138 17.1704C2.88252 18.378 3.87229 19.7077 5.17628 19.6599C6.40837 19.6116 6.89134 18.8621 8.38893 18.8621C9.88552 18.8621 10.3206 19.6599 11.6248 19.6357C12.9774 19.6116 13.8229 18.4275 14.644 17.2187C15.5861 15.842 15.9718 14.5128 15.996 14.4398C15.9717 14.4156 13.3879 13.4244 13.3639 10.4523C13.3395 7.96366 15.3925 6.77982 15.4891 6.70647C14.3299 4.99198 12.5185 4.79859 11.8905 4.74999Z" fill="white"/>
<path d="M25.9819 1.38214C29.4993 1.38214 31.9485 3.80674 31.9485 7.33676C31.9485 10.8794 29.4488 13.3166 25.8937 13.3166H21.9993V19.5098H19.1855V1.38214H25.9819ZM21.9992 10.9548H25.2277C27.6775 10.9548 29.0717 9.63581 29.0717 7.34936C29.0717 5.06314 27.6775 3.75656 25.2403 3.75656H21.9992V10.9548Z" fill="white"/>
<path d="M32.6836 15.7537C32.6836 13.442 34.4549 12.0225 37.5958 11.8467L41.2136 11.6331V10.6157C41.2136 9.14587 40.2211 8.26646 38.5632 8.26646C36.9925 8.26646 36.0126 9.0201 35.7742 10.2011H33.2114C33.3622 7.8141 35.3971 6.05539 38.6635 6.05539C41.8668 6.05539 43.9145 7.75133 43.9145 10.4019V19.5097H41.3139V17.3364H41.2514C40.4851 18.8063 38.8142 19.7358 37.0807 19.7358C34.4927 19.7358 32.6836 18.1278 32.6836 15.7537ZM41.2134 14.5603V13.5176L37.9597 13.7185C36.3392 13.8317 35.4222 14.5478 35.4222 15.6784C35.4222 16.834 36.3769 17.5879 37.8342 17.5879C39.731 17.5876 41.2134 16.2812 41.2134 14.5603Z" fill="white"/>
<path d="M46.3691 24.3715V22.173C46.5698 22.2232 47.0219 22.2232 47.2481 22.2232C48.5043 22.2232 49.1828 21.6957 49.5971 20.3389C49.5971 20.3137 49.8361 19.5349 49.8361 19.5223L45.0625 6.29398H48.0018L51.3438 17.0475H51.3938L54.7358 6.29398H57.5997L52.6497 20.2005C51.5195 23.4042 50.213 24.4342 47.4744 24.4342C47.2481 24.4342 46.5697 24.409 46.3691 24.3715Z" fill="white"/>
</svg>
