<svg width="58" height="25" viewBox="0 0 58 25" fill="none" xmlns="http://www.w3.org/2000/svg">
<path d="M10.8871 3.1509C11.5652 2.30265 12.0253 1.16381 11.9041 0C10.9114 0.0493874 9.69997 0.654973 8.99864 1.50378C8.36887 2.23076 7.81154 3.41729 7.95689 4.53228C9.07109 4.62892 10.1845 3.97529 10.8871 3.1509Z" fill="#656565"/>
<path d="M11.8905 4.75011C10.2722 4.6537 8.8962 5.66856 8.12332 5.66856C7.35011 5.66856 6.16661 4.79871 4.88659 4.82211C3.22058 4.84664 1.67472 5.7886 0.829281 7.28676C-0.90963 10.2839 0.370394 14.7296 2.06138 17.1705C2.88252 18.3781 3.87229 19.7079 5.17628 19.6601C6.40837 19.6117 6.89134 18.8622 8.38893 18.8622C9.88552 18.8622 10.3206 19.6601 11.6248 19.6359C12.9774 19.6117 13.8229 18.4276 14.644 17.2188C15.5861 15.8421 15.9718 14.513 15.996 14.4399C15.9717 14.4158 13.3879 13.4245 13.3639 10.4524C13.3395 7.96378 15.3925 6.77995 15.4891 6.7066C14.3299 4.9921 12.5185 4.79871 11.8905 4.75011Z" fill="#656565"/>
<path d="M25.9799 1.38232C29.4974 1.38232 31.9466 3.80692 31.9466 7.33694C31.9466 10.8796 29.4468 13.3168 25.8917 13.3168H21.9973V19.51H19.1836V1.38232H25.9799ZM21.9972 10.9549H25.2257C27.6755 10.9549 29.0697 9.63599 29.0697 7.34954C29.0697 5.06332 27.6755 3.75675 25.2383 3.75675H21.9972V10.9549Z" fill="#656565"/>
<path d="M32.6836 15.7539C32.6836 13.4423 34.4549 12.0228 37.5958 11.8469L41.2136 11.6334V10.616C41.2136 9.14615 40.2211 8.26674 38.5632 8.26674C36.9925 8.26674 36.0126 9.02037 35.7742 10.2014H33.2114C33.3622 7.81437 35.3971 6.05566 38.6635 6.05566C41.8668 6.05566 43.9145 7.7516 43.9145 10.4022V19.51H41.3139V17.3367H41.2514C40.4851 18.8066 38.8142 19.7361 37.0807 19.7361C34.4927 19.7361 32.6836 18.128 32.6836 15.7539ZM41.2134 14.5605V13.5179L37.9597 13.7188C36.3392 13.832 35.4222 14.5481 35.4222 15.6787C35.4222 16.8343 36.3769 17.5881 37.8342 17.5881C39.731 17.5879 41.2134 16.2815 41.2134 14.5605Z" fill="#656565"/>
<path d="M46.3691 24.3714V22.173C46.5698 22.2231 47.0219 22.2231 47.2481 22.2231C48.5043 22.2231 49.1828 21.6956 49.5971 20.3389C49.5971 20.3137 49.8361 19.5348 49.8361 19.5222L45.0625 6.29395H48.0018L51.3438 17.0475H51.3938L54.7358 6.29395H57.5997L52.6497 20.2005C51.5195 23.4042 50.213 24.4342 47.4744 24.4342C47.2481 24.4342 46.5697 24.409 46.3691 24.3714Z" fill="#656565"/>
</svg>
