<svg width="32" height="32" viewBox="0 0 32 32" fill="none" xmlns="http://www.w3.org/2000/svg">
<g clip-path="url(#clip0_1375_1352)">
<path d="M31.5194 19.8706C29.3824 28.442 20.701 33.6585 12.1286 31.521C3.55967 29.384 -1.65679 20.7021 0.481169 12.1312C2.61714 3.55878 11.2986 -1.65818 19.8685 0.478786C28.4404 2.61579 33.6563 11.2987 31.5194 19.8706Z" fill="#F7931A"/>
<path d="M10.7371 18.6946C10.6501 18.9107 10.4296 19.2346 9.93259 19.1116C9.95012 19.1371 8.65663 18.7931 8.65663 18.7931L7.78516 20.8026L10.0696 21.3721C10.4946 21.4786 10.9111 21.5901 11.3211 21.6951L10.5946 24.6121L12.3481 25.0496L13.0676 22.1636C13.5466 22.2936 14.0115 22.4136 14.4665 22.5266L13.7495 25.3991L15.5051 25.8366L16.2315 22.9251C19.225 23.4916 21.476 23.2631 22.4235 20.5556C23.187 18.3757 22.3855 17.1181 20.8105 16.2981C21.9575 16.0336 22.8215 15.2792 23.052 13.7207C23.3704 11.5917 21.7494 10.4472 19.533 9.6837L20.252 6.7997L18.4964 6.3622L17.7965 9.17017C17.335 9.05517 16.861 8.94667 16.39 8.83916L17.095 6.01266L15.3405 5.57516L14.621 8.45813C14.239 8.37114 13.864 8.2851 13.5 8.19463L13.502 8.18561L11.081 7.58112L10.614 9.45611C10.614 9.45611 11.9165 9.75461 11.889 9.7731C12.6 9.9506 12.7285 10.4211 12.707 10.7941L10.7371 18.6946ZM19.041 19.3451C18.4985 21.5251 14.828 20.3466 13.6381 20.0511L14.6021 16.1867C15.792 16.4836 19.608 17.0716 19.041 19.3451ZM19.584 13.6892C19.089 15.6722 16.034 14.6647 15.043 14.4177L15.917 10.9127C16.908 11.1597 20.0995 11.6207 19.584 13.6892Z" fill="white"/>
</g>
<defs>
<clipPath id="clip0_1375_1352">
<rect width="32" height="32" fill="white"/>
</clipPath>
</defs>
</svg>
