<svg width="23" height="46" viewBox="0 0 23 46" fill="none" xmlns="http://www.w3.org/2000/svg">
<path d="M10.2937 23.9049C10.9043 23.2942 11.8944 23.2942 12.505 23.9049L21.6932 33.0931C22.3039 33.7037 22.3039 34.6938 21.6932 35.3044L21.4279 35.5698C15.8893 30.0312 6.90945 30.0312 1.37086 35.5698L1.1055 35.3044C0.494846 34.6938 0.494846 33.7037 1.1055 33.0931L10.2937 23.9049Z" fill="#6B63DF"/>
<path d="M12.5051 21.6933C11.8944 22.3039 10.9044 22.3039 10.2937 21.6933L1.10554 12.5051C0.494892 11.8944 0.494892 10.9044 1.10554 10.2937L1.3709 10.0284C6.90949 15.567 15.8893 15.567 21.4279 10.0284L21.6933 10.2937C22.3039 10.9044 22.3039 11.8944 21.6933 12.5051L12.5051 21.6933Z" fill="#6B63DF"/>
</svg>
