<svg width="20" height="20" viewBox="0 0 20 20" fill="none" xmlns="http://www.w3.org/2000/svg">
<path d="M10 0C4.47719 0 0 4.47719 0 10C0 15.5228 4.47719 20 10 20C15.5228 20 20 15.5228 20 10C20 4.47719 15.5228 0 10 0ZM12.5 1.62063C15.3169 2.46031 17.5322 4.68312 18.3731 7.49998H14.3191C13.8804 6.74675 13.2536 6.12045 12.5 5.68248V1.62063ZM13.7428 10.0041C13.7428 12.0731 12.0672 13.7503 10 13.7503C7.93283 13.7503 6.25721 12.0731 6.25721 10.0041C6.25721 7.935 7.93314 6.25752 10 6.25752C12.0669 6.25752 13.7428 7.93502 13.7428 10.0041ZM8.75002 1.34625C9.15846 1.28781 9.57533 1.25594 10 1.25594C10.4244 1.25594 10.8416 1.28781 11.25 1.34625V5.17062C10.85 5.06719 10.4325 5.00656 10 5.00656C9.56752 5.00656 9.15033 5.06719 8.75002 5.17062V1.34625ZM7.50002 1.62063V5.6825C6.74689 6.11969 6.11877 6.74781 5.68096 7.5H1.62689C2.46752 4.68313 4.68314 2.46033 7.50002 1.62063ZM1.25596 10.0031C1.25596 9.57686 1.29219 9.15996 1.35127 8.74996H5.16752C5.06377 9.15059 5.00658 9.56994 5.00658 10.0034C5.00658 10.4343 5.06346 10.8515 5.16596 11.25H1.35033C1.29223 10.8422 1.25596 10.4269 1.25596 10.0031ZM7.5 18.3853C4.68094 17.5453 2.46471 15.3193 1.62502 12.5H5.67721C6.11533 13.255 6.74469 13.8856 7.5 14.324V18.3853V18.3853ZM11.25 18.6596C10.8416 18.7181 10.4244 18.7499 10 18.7499C9.57533 18.7499 9.15846 18.7178 8.75002 18.6596V14.8359C9.15033 14.9393 9.56752 14.9999 10 14.9999C10.4325 14.9999 10.85 14.9393 11.25 14.8359V18.6596ZM12.5 18.3853V14.324C13.255 13.8856 13.8847 13.255 14.3225 12.5H18.3747C17.535 15.319 15.3188 17.5453 12.5 18.3853L12.5 18.3853ZM14.8341 11.25C14.9366 10.8515 14.9935 10.4343 14.9935 10.0034C14.9935 9.56992 14.9363 9.15057 14.8322 8.74994H18.6488C18.7075 9.15994 18.7441 9.57682 18.7441 10.0031C18.7441 10.4268 18.7081 10.8425 18.6497 11.25H14.8341Z" fill="#4374FA"/>
</svg>
