<svg width="35" height="35" viewBox="0 0 35 35" fill="none" xmlns="http://www.w3.org/2000/svg">
<path d="M17.5 0.5C26.9306 0.5 34.5 7.49865 34.5 16.042C34.4997 24.5851 26.9304 31.583 17.5 31.583C14.6159 31.583 11.902 30.9268 9.52539 29.7705L9.29883 29.6602L9.0752 29.7773C6.74889 30.9942 4.92633 31.8436 3.59961 32.334C2.93478 32.5797 2.41157 32.7284 2.02246 32.792C1.65867 32.8514 1.49082 32.8207 1.43359 32.8008C1.42128 32.7706 1.40111 32.6934 1.40332 32.5273C1.40737 32.2277 1.48977 31.7779 1.67578 31.1582C2.0453 29.9272 2.78361 28.1542 3.9043 25.8271L4.04199 25.541L3.8418 25.2949C1.73916 22.7066 0.500105 19.5056 0.5 16.042C0.5 7.49865 8.06939 0.5 17.5 0.5ZM8.02051 21.083L8.01172 21.084C7.61328 21.0914 7.23327 21.2547 6.9541 21.5391C6.67515 21.8234 6.51855 22.2061 6.51855 22.6045C6.51862 23.0029 6.67504 23.3856 6.9541 23.6699C7.19837 23.9188 7.51988 24.0751 7.86328 24.1152L8.01172 24.125H19.1133C19.5117 24.1176 19.8917 23.9543 20.1709 23.6699C20.45 23.3856 20.6064 23.0029 20.6064 22.6045C20.6064 22.2061 20.4499 21.8234 20.1709 21.5391C19.8917 21.2547 19.5117 21.0914 19.1133 21.084V21.083H8.02051ZM8.02051 15.542C7.61729 15.5421 7.23044 15.7022 6.94531 15.9873C6.66022 16.2725 6.5 16.6592 6.5 17.0625C6.5 17.4658 6.66022 17.8525 6.94531 18.1377C7.23044 18.4228 7.61729 18.5829 8.02051 18.583H23.4795C23.8827 18.5829 24.2696 18.4228 24.5547 18.1377C24.8398 17.8525 25 17.4658 25 17.0625C25 16.6592 24.8398 16.2725 24.5547 15.9873C24.2696 15.7022 23.8827 15.5421 23.4795 15.542H8.02051ZM8.01172 10C7.61328 10.0074 7.23327 10.1707 6.9541 10.4551C6.67504 10.7394 6.51862 11.1221 6.51855 11.5205C6.51855 11.9189 6.67515 12.3016 6.9541 12.5859C7.23327 12.8703 7.61328 13.0336 8.01172 13.041V13.042H27.8545L27.8633 13.041C28.2617 13.0336 28.6417 12.8703 28.9209 12.5859C29.1999 12.3016 29.3564 11.9189 29.3564 11.5205C29.3564 11.1221 29.2 10.7394 28.9209 10.4551C28.6417 10.1707 28.2617 10.0074 27.8633 10H8.01172Z" stroke="white"/>
</svg>
