<svg width="15" height="17" viewBox="0 0 15 17" fill="none" xmlns="http://www.w3.org/2000/svg">
<path fill-rule="evenodd" clip-rule="evenodd" d="M9.5625 5.67907e-08H6.5205C5.142 5.67907e-08 4.05 5.58794e-08 3.19575 0.11475C2.31675 0.23325 1.605 0.48225 1.04325 1.04325C0.48225 1.605 0.23325 2.31675 0.11475 3.19575C1.45286e-07 4.05075 5.67907e-08 5.142 5.67907e-08 6.5205V11.0625C-0.000134543 11.7326 0.238995 12.3807 0.674323 12.8902C1.10965 13.3996 1.71257 13.7369 2.3745 13.8412C2.47725 14.4143 2.676 14.9033 3.0735 15.3015C3.525 15.753 4.0935 15.9465 4.7685 16.038C5.41875 16.125 6.246 16.125 7.27125 16.125H9.60375C10.629 16.125 11.4563 16.125 12.1065 16.038C12.7815 15.9465 13.35 15.753 13.8015 15.3015C14.253 14.85 14.4465 14.2815 14.538 13.6065C14.625 12.9563 14.625 12.129 14.625 11.1038V7.27125C14.625 6.246 14.625 5.41875 14.538 4.7685C14.4465 4.0935 14.253 3.525 13.8015 3.0735C13.4033 2.676 12.9143 2.47725 12.3412 2.3745C12.2369 1.71257 11.8996 1.10965 11.3902 0.674323C10.8807 0.238995 10.2326 -0.000134543 9.5625 5.67907e-08ZM11.16 2.26575C11.046 1.93275 10.8306 1.64374 10.5442 1.43919C10.2577 1.23464 9.91449 1.12479 9.5625 1.125H6.5625C5.13225 1.125 4.11675 1.1265 3.345 1.23C2.59125 1.33125 2.15625 1.52175 1.839 1.839C1.52175 2.15625 1.33125 2.59125 1.23 3.345C1.1265 4.11675 1.125 5.13225 1.125 6.5625V11.0625C1.12479 11.4145 1.23464 11.7577 1.43919 12.0442C1.64374 12.3306 1.93275 12.546 2.26575 12.66C2.25 12.2025 2.25 11.685 2.25 11.1038V7.27125C2.25 6.246 2.25 5.41875 2.33775 4.7685C2.42775 4.0935 2.62275 3.525 3.0735 3.0735C3.525 2.622 4.0935 2.4285 4.7685 2.33775C5.41875 2.25 6.246 2.25 7.27125 2.25H9.60375C10.185 2.25 10.7025 2.25 11.16 2.26575ZM3.8685 3.87C4.07625 3.66225 4.36725 3.52725 4.9185 3.453C5.484 3.37725 6.2355 3.37575 7.31175 3.37575H9.56175C10.638 3.37575 11.3888 3.37725 11.9557 3.453C12.5063 3.52725 12.7972 3.663 13.005 3.87C13.2128 4.07775 13.3477 4.36875 13.422 4.92C13.4978 5.4855 13.4993 6.237 13.4993 7.31325V11.0632C13.4993 12.1395 13.4978 12.8903 13.422 13.4573C13.3477 14.0078 13.212 14.2987 13.005 14.5065C12.7972 14.7142 12.5063 14.8493 11.955 14.9235C11.3888 14.9993 10.638 15.0007 9.56175 15.0007H7.31175C6.2355 15.0007 5.484 14.9993 4.91775 14.9235C4.36725 14.8493 4.07625 14.7135 3.8685 14.5065C3.66075 14.2987 3.52575 14.0077 3.4515 13.4565C3.37575 12.8902 3.37425 12.1395 3.37425 11.0632V7.31325C3.37425 6.237 3.37575 5.4855 3.4515 4.91925C3.52575 4.36875 3.6615 4.07775 3.8685 3.87Z" fill="#A3A3A3"/>
</svg>
