<svg width="131" height="131" viewBox="0 0 131 131" fill="none" xmlns="http://www.w3.org/2000/svg">
<g clip-path="url(#clip0_3687_772)">
<path d="M65.5 131C101.675 131 131 101.675 131 65.5C131 29.3253 101.675 0 65.5 0C29.3253 0 0 29.3253 0 65.5C0 101.675 29.3253 131 65.5 131Z" fill="#4374FA"/>
<path d="M63.4494 68.6765C65.2038 66.9222 68.0481 66.9222 69.8025 68.6765L96.1994 95.0735C97.9538 96.8278 97.9538 99.6722 96.1994 101.427L95.4371 102.189C79.5251 86.277 53.7268 86.277 37.8149 102.189L37.0525 101.427C35.2982 99.6722 35.2982 96.8278 37.0525 95.0735L63.4494 68.6765Z" fill="white"/>
<path d="M69.8025 62.3235C68.0482 64.0778 65.2038 64.0778 63.4495 62.3235L37.0525 35.9265C35.2982 34.1722 35.2982 31.3278 37.0525 29.5735L37.8149 28.8111C53.7268 44.723 79.5252 44.723 95.4371 28.8111L96.1994 29.5735C97.9538 31.3278 97.9538 34.1722 96.1994 35.9265L69.8025 62.3235Z" fill="white"/>
</g>
<defs>
<clipPath id="clip0_3687_772">
<rect width="131" height="131" fill="white"/>
</clipPath>
</defs>
</svg>
