<svg width="72" height="72" viewBox="0 0 72 72" fill="none" xmlns="http://www.w3.org/2000/svg">
<path d="M6.73135 5.4209C5.08533 5.4209 3.75098 6.75524 3.75098 8.40127V26.2835C3.75098 27.9295 5.08533 29.2639 6.73135 29.2639H30.5742C32.2204 29.2639 33.5548 27.9295 33.5548 26.2835V8.33756C33.5548 6.72672 32.249 5.4209 30.6381 5.4209H30.5742" stroke="#70AE1C" stroke-width="2" stroke-linecap="round" stroke-linejoin="round"/>
<path d="M41.1853 38.5979C39.5395 38.5979 38.2051 39.9323 38.2051 41.5784V59.4605C38.2051 61.1067 39.5395 62.4411 41.1853 62.4411H65.0282C66.6744 62.4411 68.0087 61.1067 68.0087 59.4605V41.5146C68.0087 39.904 66.703 38.5979 65.0921 38.5979H65.0282" stroke="#70AE1C" stroke-width="2" stroke-linecap="round" stroke-linejoin="round"/>
<path d="M18.6533 29.2637V35.2245" stroke="#70AE1C" stroke-width="2" stroke-linecap="round" stroke-linejoin="round"/>
<path d="M53.1064 62.4408V68.4015" stroke="#70AE1C" stroke-width="2" stroke-linecap="round" stroke-linejoin="round"/>
<path d="M12.6924 35.2245H24.6138" stroke="#70AE1C" stroke-width="2" stroke-linecap="round" stroke-linejoin="round"/>
<path d="M47.1455 68.4016H59.0671" stroke="#70AE1C" stroke-width="2" stroke-linecap="round" stroke-linejoin="round"/>
<path d="M17.4316 3.73438V6.24038" stroke="#70AE1C" stroke-width="2" stroke-linecap="round" stroke-linejoin="round"/>
<path d="M17.4425 21.2764L17.4316 23.7824" stroke="#70AE1C" stroke-width="2" stroke-linecap="round" stroke-linejoin="round"/>
<path d="M23.5454 9.99952C23.5454 10.9965 23.1588 11.9526 22.4708 12.6575C21.7827 13.3625 20.8495 13.7585 19.8765 13.7585H13.7617V6.24052H19.8765C20.8495 6.24052 21.7827 6.63658 22.4708 7.34151C23.1588 8.04647 23.5454 9.00258 23.5454 9.99952Z" stroke="#70AE1C" stroke-width="2" stroke-linecap="round" stroke-linejoin="round"/>
<path d="M23.5454 17.5173C23.5454 18.5142 23.1588 19.4703 22.4708 20.1753C21.7827 20.8802 20.8495 21.2763 19.8765 21.2763H13.7617V13.7583H19.8765C20.8495 13.7583 21.7827 14.1543 22.4708 14.8593C23.1588 15.5642 23.5454 16.5203 23.5454 17.5173Z" stroke="#70AE1C" stroke-width="2" stroke-linecap="round" stroke-linejoin="round"/>
<path d="M51.8838 36.9114V39.4174" stroke="#70AE1C" stroke-width="2" stroke-linecap="round" stroke-linejoin="round"/>
<path d="M51.8949 54.4534L51.8838 56.9594" stroke="#70AE1C" stroke-width="2" stroke-linecap="round" stroke-linejoin="round"/>
<path d="M57.9985 43.1768C57.9985 44.1737 57.6118 45.1298 56.9237 45.8347C56.2357 46.5397 55.3026 46.9358 54.3296 46.9358H48.2148V39.4178H54.3296C55.3026 39.4178 56.2357 39.8135 56.9237 40.5185C57.6118 41.2235 57.9985 42.1795 57.9985 43.1768Z" stroke="#70AE1C" stroke-width="2" stroke-linecap="round" stroke-linejoin="round"/>
<path d="M57.9985 50.6945C57.9985 51.6914 57.6118 52.6475 56.9237 53.3524C56.2357 54.0574 55.3026 54.4535 54.3296 54.4535H48.2148V46.9355H54.3296C55.3026 46.9355 56.2357 47.3315 56.9237 48.0362C57.6118 48.7412 57.9985 49.6975 57.9985 50.6945Z" stroke="#70AE1C" stroke-width="2" stroke-linecap="round" stroke-linejoin="round"/>
<path d="M9.94843 44.8472C9.94843 44.8472 9.67721 50.6055 17.4001 56.2965C19.0802 57.5478 20.9996 58.44 23.0391 58.9178C25.0786 59.3958 27.1945 59.4492 29.2555 59.0747" stroke="#70AE1C" stroke-width="2" stroke-linecap="round" stroke-linejoin="round"/>
<path d="M24.2939 63.1116L29.2546 59.0749L25.218 54.1143" stroke="#70AE1C" stroke-width="2" stroke-linecap="round" stroke-linejoin="round"/>
<path d="M41.4082 14.2543C41.4082 14.2543 46.9 12.502 54.3961 18.4887C56.0394 19.7878 57.398 21.4109 58.3873 23.2572C59.3769 25.1035 59.976 27.1335 60.1478 29.2212" stroke="#70AE1C" stroke-width="2" stroke-linecap="round" stroke-linejoin="round"/>
<path d="M45.6864 19.0331L41.3916 14.2943L46.1303 9.9994" stroke="#70AE1C" stroke-width="2" stroke-linecap="round" stroke-linejoin="round"/>
</svg>
