<svg width="28" height="28" viewBox="0 0 28 28" fill="none" xmlns="http://www.w3.org/2000/svg">
<g clip-path="url(#clip0_280_318)">
<path d="M14 28C21.732 28 28 21.732 28 14C28 6.26801 21.732 0 14 0C6.26801 0 0 6.26801 0 14C0 21.732 6.26801 28 14 28Z" fill="#F7931A"/>
<path d="M20.2903 12.2675C20.5651 10.4335 19.1677 9.44737 17.2585 8.78937L17.878 6.30437L16.366 5.92813L15.7622 8.3475C15.365 8.24775 14.9572 8.155 14.5503 8.06225L15.1585 5.62713L13.6465 5.25L13.027 7.73412C12.6974 7.66004 12.3754 7.58421 12.061 7.50663L12.0627 7.49875L9.9767 6.97812L9.5742 8.59337C9.5742 8.59337 10.6968 8.85063 10.6732 8.86637C11.2857 9.0195 11.396 9.42462 11.3776 9.74662L10.6723 12.5772C10.7149 12.5872 10.7674 12.6038 10.8298 12.6271L10.6697 12.5877L9.68095 16.5532C9.6057 16.7387 9.41583 17.0179 8.98708 16.912C9.00283 16.9339 7.88808 16.6381 7.88808 16.6381L7.13733 18.3689L9.10608 18.8597C9.47183 18.9516 9.83058 19.0479 10.1832 19.138L9.55758 21.651L11.0687 22.0272L11.6882 19.5422C12.1006 19.6531 12.5025 19.7572 12.894 19.8546L12.2762 22.3291L13.7882 22.7054L14.4138 20.1976C16.9933 20.6859 18.9323 20.489 19.7487 18.1562C20.4067 16.2785 19.7163 15.1944 18.3592 14.4882C19.348 14.2607 20.0917 13.6106 20.2903 12.2675ZM16.8341 17.1132C16.3677 18.9919 13.2046 17.976 12.1791 17.7214L13.0103 14.392C14.0358 14.6484 17.3232 15.155 16.8341 17.1132ZM17.3022 12.2404C16.8761 13.9492 14.2441 13.0804 13.391 12.8677L14.1435 9.849C14.9966 10.0616 17.7467 10.458 17.3022 12.2404Z" fill="white"/>
</g>
<defs>
<clipPath id="clip0_280_318">
<rect width="28" height="28" fill="white"/>
</clipPath>
</defs>
</svg>
