<svg width="24" height="24" viewBox="0 0 24 24" fill="none" xmlns="http://www.w3.org/2000/svg">
<g clip-path="url(#clip0_334_55)">
<path d="M12 24C5.37225 24 0 18.6278 0 12C0 5.37225 5.37225 0 12 0C18.6278 0 24 5.37225 24 12C24 18.6278 18.6278 24 12 24ZM17.3025 6L13.872 9.39225C13.3729 9.8849 12.6998 10.1611 11.9985 10.1611C11.2972 10.1611 10.6241 9.8849 10.125 9.39225L6.6975 6H4.52625L9.04125 10.4677C9.82989 11.245 10.8927 11.6807 12 11.6807C13.1073 11.6807 14.1701 11.245 14.9587 10.4677L19.4708 6H17.3025ZM6.67125 18.4222L10.128 15C10.6271 14.5074 11.3002 14.2311 12.0015 14.2311C12.7028 14.2311 13.3759 14.5074 13.875 15L17.3288 18.4222H19.5L14.9587 13.9275C14.1701 13.1502 13.1073 12.7145 12 12.7145C10.8927 12.7145 9.82989 13.1502 9.04125 13.9275L4.5 18.4215L6.67125 18.4222Z" fill="white"/>
</g>
<defs>
<clipPath id="clip0_334_55">
<rect width="24" height="24" fill="white"/>
</clipPath>
</defs>
</svg>
