<svg width="36" height="36" viewBox="0 0 36 36" fill="none" xmlns="http://www.w3.org/2000/svg">
<path d="M18 1C27.3888 1 35 8.61116 35 18C35 27.3888 27.3888 35 18 35C8.61116 35 1 27.3888 1 18C1 8.61116 8.61116 1 18 1Z" fill="#3E73C4" stroke="#0F0F0F" stroke-width="2"/>
<path d="M22.0216 20.124C22.0216 18 20.7416 17.272 18.1816 16.968C16.3536 16.725 15.9886 16.24 15.9886 15.39C15.9886 14.54 16.5986 13.994 17.8166 13.994C18.9136 13.994 19.5236 14.358 19.8276 15.269C19.8595 15.3569 19.9175 15.433 19.9938 15.4872C20.07 15.5413 20.161 15.5709 20.2546 15.572H21.2296C21.2859 15.5735 21.3419 15.5636 21.3943 15.5428C21.4466 15.522 21.4942 15.4907 21.5341 15.451C21.5741 15.4113 21.6055 15.3638 21.6265 15.3116C21.6476 15.2593 21.6578 15.2033 21.6566 15.147V15.087C21.5374 14.4279 21.2039 13.8266 20.7079 13.3765C20.2119 12.9264 19.5811 12.6528 18.9136 12.598V11.142C18.9136 10.899 18.7306 10.717 18.4266 10.656H17.5116C17.2686 10.656 17.0856 10.838 17.0246 11.142V12.538C15.1956 12.78 14.0386 13.994 14.0386 15.512C14.0386 17.514 15.2566 18.303 17.8166 18.607C19.5236 18.91 20.0716 19.275 20.0716 20.246C20.0716 21.216 19.2186 21.884 18.0606 21.884C16.4756 21.884 15.9276 21.217 15.7446 20.306C15.6846 20.064 15.5006 19.942 15.3176 19.942H14.2816C14.2253 19.9406 14.1694 19.9507 14.1172 19.9716C14.0649 19.9924 14.0175 20.0237 13.9777 20.0634C13.9378 20.1031 13.9065 20.1505 13.8855 20.2027C13.8645 20.2549 13.8543 20.3108 13.8556 20.367V20.427C14.0986 21.945 15.0746 23.037 17.0856 23.341V24.798C17.0856 25.04 17.2686 25.223 17.5726 25.283H18.4876C18.7306 25.283 18.9136 25.101 18.9746 24.798V23.34C20.8036 23.037 22.0216 21.762 22.0216 20.123V20.124Z" fill="white"/>
<path d="M14.8913 26.497C10.1373 24.797 7.69931 19.517 9.46731 14.844C10.3813 12.294 12.3923 10.353 14.8913 9.442C15.1353 9.321 15.2563 9.139 15.2563 8.835V7.985C15.2563 7.743 15.1353 7.561 14.8913 7.5C14.8303 7.5 14.7083 7.5 14.6473 7.56C13.2757 7.98832 12.0024 8.68373 10.9007 9.60617C9.79902 10.5286 8.89066 11.6599 8.22795 12.9348C7.56525 14.2098 7.16128 15.6032 7.03932 17.0349C6.91736 18.4666 7.0798 19.9083 7.51731 21.277C8.61331 24.677 11.2343 27.287 14.6473 28.379C14.8913 28.5 15.1353 28.379 15.1953 28.136C15.2563 28.076 15.2563 28.014 15.2563 27.893V27.043C15.2563 26.861 15.0743 26.619 14.8913 26.497ZM21.3513 7.561C21.1073 7.439 20.8633 7.561 20.8033 7.803C20.7423 7.864 20.7423 7.925 20.7423 8.046V8.896C20.7423 9.139 20.9243 9.381 21.1073 9.503C25.8613 11.203 28.2993 16.483 26.5313 21.156C25.6173 23.706 23.6063 25.647 21.1073 26.558C20.8633 26.679 20.7423 26.861 20.7423 27.165V28.015C20.7423 28.257 20.8633 28.439 21.1073 28.5C21.1683 28.5 21.2903 28.5 21.3513 28.44C22.7229 28.0117 23.9962 27.3163 25.0979 26.3938C26.1996 25.4714 27.108 24.3401 27.7707 23.0652C28.4334 21.7902 28.8373 20.3968 28.9593 18.9651C29.0813 17.5334 28.9188 16.0917 28.4813 14.723C27.3853 11.263 24.7033 8.653 21.3513 7.561Z" fill="white"/>
</svg>
