<svg width="21" height="21" viewBox="0 0 21 21" fill="none" xmlns="http://www.w3.org/2000/svg">
<path d="M7.42416 13.5H11.132C11.9478 13.5 12.6152 12.825 12.6152 12C12.6152 11.175 11.9478 10.5 11.132 10.5H9.64888C8.83315 10.5 8.16573 9.825 8.16573 9C8.16573 8.175 8.83315 7.5 9.64888 7.5H13.3567M10.3904 5.25V7.0005M10.3904 12.75V15.75M20.0309 10.5C20.0309 13.0859 19.0152 15.5658 17.2073 17.3943C15.3993 19.2228 12.9473 20.25 10.3904 20.25C7.83364 20.25 5.38156 19.2228 3.57362 17.3943C1.76569 15.5658 0.75 13.0859 0.75 10.5C0.75 7.91414 1.76569 5.43419 3.57362 3.60571C5.38156 1.77723 7.83364 0.75 10.3904 0.75C12.9473 0.75 15.3993 1.77723 17.2073 3.60571C19.0152 5.43419 20.0309 7.91414 20.0309 10.5Z" stroke="#656565" stroke-width="1.5" stroke-miterlimit="10" stroke-linejoin="round"/>
</svg>
