<svg width="46" height="46" viewBox="0 0 46 46" fill="none" xmlns="http://www.w3.org/2000/svg">
<path d="M0 9.6C0 6.23968 0 4.55953 0.653961 3.27606C1.2292 2.14708 2.14708 1.2292 3.27606 0.653961C4.55953 0 6.23969 0 9.6 0H36.4C39.7603 0 41.4405 0 42.7239 0.653961C43.8529 1.2292 44.7708 2.14708 45.346 3.27606C46 4.55953 46 6.23969 46 9.6V36.4C46 39.7603 46 41.4405 45.346 42.7239C44.7708 43.8529 43.8529 44.7708 42.7239 45.346C41.4405 46 39.7603 46 36.4 46H9.6C6.23968 46 4.55953 46 3.27606 45.346C2.14708 44.7708 1.2292 43.8529 0.653961 42.7239C0 41.4405 0 39.7603 0 36.4V9.6Z" fill="white"/>
<path d="M17.2929 27.2929C16.9024 27.6834 16.9024 28.3166 17.2929 28.7071C17.6834 29.0976 18.3166 29.0976 18.7071 28.7071L18 28L17.2929 27.2929ZM29 18C29 17.4477 28.5523 17 28 17H19C18.4477 17 18 17.4477 18 18C18 18.5523 18.4477 19 19 19H27V27C27 27.5523 27.4477 28 28 28C28.5523 28 29 27.5523 29 27V18ZM18 28L18.7071 28.7071L28.7071 18.7071L28 18L27.2929 17.2929L17.2929 27.2929L18 28Z" fill="black" fill-opacity="0.6"/>
</svg>
