<svg width="24" height="24" viewBox="0 0 24 24" fill="none" xmlns="http://www.w3.org/2000/svg">
<path d="M12 24C18.6274 24 24 18.6274 24 12C24 5.37258 18.6274 0 12 0C5.37258 0 0 5.37258 0 12C0 18.6274 5.37258 24 12 24Z" fill="black"/>
<path d="M16.2753 9.26869C16.2005 9.3376 16.103 9.37652 16.0013 9.37802H6.38662C6.04529 9.37802 5.87329 8.98802 6.10929 8.75869L7.68795 7.23669C7.76133 7.16561 7.85913 7.12529 7.96129 7.12402H17.614C17.9586 7.12402 18.1273 7.51736 17.8873 7.74669L16.2753 9.26869Z" fill="url(#paint0_linear_105_1570)"/>
<path d="M16.2753 16.7714C16.2005 16.8397 16.1026 16.8771 16.0013 16.876H6.38662C6.04529 16.876 5.87329 16.4894 6.10929 16.2607L7.68795 14.7347C7.76196 14.6651 7.85968 14.6262 7.96129 14.626H17.614C17.9586 14.626 18.1273 15.016 17.8873 15.2447L16.2753 16.7714Z" fill="url(#paint1_linear_105_1570)"/>
<path d="M16.2753 10.9814C16.2006 10.9128 16.1027 10.8752 16.0013 10.8761H6.38662C6.04529 10.8761 5.87329 11.2627 6.10929 11.4907L7.68795 13.0174C7.76266 13.0859 7.85993 13.1246 7.96129 13.1261H17.614C17.9586 13.1261 18.1273 12.7361 17.8873 12.5074L16.2753 10.9814Z" fill="url(#paint2_linear_105_1570)"/>
<defs>
<linearGradient id="paint0_linear_105_1570" x1="6.00062" y1="14.8814" x2="18.2873" y2="14.394" gradientUnits="userSpaceOnUse">
<stop stop-color="#599DB0"/>
<stop offset="1" stop-color="#47F8C3"/>
</linearGradient>
<linearGradient id="paint1_linear_105_1570" x1="6.00062" y1="15.3154" x2="18.2153" y2="14.9107" gradientUnits="userSpaceOnUse">
<stop stop-color="#C44FE2"/>
<stop offset="1" stop-color="#73B0D0"/>
</linearGradient>
<linearGradient id="paint2_linear_105_1570" x1="6.68995" y1="12.0014" x2="17.5346" y2="12.0014" gradientUnits="userSpaceOnUse">
<stop stop-color="#778CBF"/>
<stop offset="1" stop-color="#5DCDC9"/>
</linearGradient>
</defs>
</svg>
