<svg width="15" height="14" viewBox="0 0 15 14" fill="none" xmlns="http://www.w3.org/2000/svg">
<path d="M0.5 6.83333C0.5 4.31933 0.5 3.062 1.28133 2.28133C2.06267 1.50067 3.31933 1.5 5.83333 1.5H8.5C11.014 1.5 12.2713 1.5 13.052 2.28133C13.8327 3.06267 13.8333 4.31933 13.8333 6.83333V8.16667C13.8333 10.6807 13.8333 11.938 13.052 12.7187C12.2707 13.4993 11.014 13.5 8.5 13.5H5.83333C3.31933 13.5 2.062 13.5 1.28133 12.7187C0.500667 11.9373 0.5 10.6807 0.5 8.16667V6.83333Z" stroke="white"/>
<path d="M3.8335 1.5V0.5M10.5002 1.5V0.5M0.833496 4.83333H13.5002" stroke="white" stroke-linecap="round"/>
<path d="M11.1665 10.1666C11.1665 10.3435 11.0963 10.513 10.9712 10.6381C10.8462 10.7631 10.6766 10.8333 10.4998 10.8333C10.323 10.8333 10.1535 10.7631 10.0284 10.6381C9.90341 10.513 9.83317 10.3435 9.83317 10.1666C9.83317 9.98984 9.90341 9.82027 10.0284 9.69524C10.1535 9.57022 10.323 9.49998 10.4998 9.49998C10.6766 9.49998 10.8462 9.57022 10.9712 9.69524C11.0963 9.82027 11.1665 9.98984 11.1665 10.1666ZM11.1665 7.49998C11.1665 7.67679 11.0963 7.84636 10.9712 7.97138C10.8462 8.09641 10.6766 8.16665 10.4998 8.16665C10.323 8.16665 10.1535 8.09641 10.0284 7.97138C9.90341 7.84636 9.83317 7.67679 9.83317 7.49998C9.83317 7.32317 9.90341 7.1536 10.0284 7.02858C10.1535 6.90355 10.323 6.83331 10.4998 6.83331C10.6766 6.83331 10.8462 6.90355 10.9712 7.02858C11.0963 7.1536 11.1665 7.32317 11.1665 7.49998ZM7.83317 10.1666C7.83317 10.3435 7.76293 10.513 7.63791 10.6381C7.51288 10.7631 7.34332 10.8333 7.1665 10.8333C6.98969 10.8333 6.82012 10.7631 6.6951 10.6381C6.57008 10.513 6.49984 10.3435 6.49984 10.1666C6.49984 9.98984 6.57008 9.82027 6.6951 9.69524C6.82012 9.57022 6.98969 9.49998 7.1665 9.49998C7.34332 9.49998 7.51288 9.57022 7.63791 9.69524C7.76293 9.82027 7.83317 9.98984 7.83317 10.1666ZM7.83317 7.49998C7.83317 7.67679 7.76293 7.84636 7.63791 7.97138C7.51288 8.09641 7.34332 8.16665 7.1665 8.16665C6.98969 8.16665 6.82012 8.09641 6.6951 7.97138C6.57008 7.84636 6.49984 7.67679 6.49984 7.49998C6.49984 7.32317 6.57008 7.1536 6.6951 7.02858C6.82012 6.90355 6.98969 6.83331 7.1665 6.83331C7.34332 6.83331 7.51288 6.90355 7.63791 7.02858C7.76293 7.1536 7.83317 7.32317 7.83317 7.49998ZM4.49984 10.1666C4.49984 10.3435 4.4296 10.513 4.30457 10.6381C4.17955 10.7631 4.00998 10.8333 3.83317 10.8333C3.65636 10.8333 3.48679 10.7631 3.36177 10.6381C3.23674 10.513 3.1665 10.3435 3.1665 10.1666C3.1665 9.98984 3.23674 9.82027 3.36177 9.69524C3.48679 9.57022 3.65636 9.49998 3.83317 9.49998C4.00998 9.49998 4.17955 9.57022 4.30457 9.69524C4.4296 9.82027 4.49984 9.98984 4.49984 10.1666ZM4.49984 7.49998C4.49984 7.67679 4.4296 7.84636 4.30457 7.97138C4.17955 8.09641 4.00998 8.16665 3.83317 8.16665C3.65636 8.16665 3.48679 8.09641 3.36177 7.97138C3.23674 7.84636 3.1665 7.67679 3.1665 7.49998C3.1665 7.32317 3.23674 7.1536 3.36177 7.02858C3.48679 6.90355 3.65636 6.83331 3.83317 6.83331C4.00998 6.83331 4.17955 6.90355 4.30457 7.02858C4.4296 7.1536 4.49984 7.32317 4.49984 7.49998Z" fill="white"/>
</svg>
