<svg width="23" height="46" viewBox="0 0 23 46" fill="none" xmlns="http://www.w3.org/2000/svg">
<path d="M10.2939 23.9048C10.9045 23.2942 11.8946 23.2942 12.5052 23.9048L21.6934 33.093C22.3041 33.7037 22.3041 34.6937 21.6934 35.3044L21.428 35.5697C15.8895 30.0312 6.90963 30.0312 1.37104 35.5697L1.10568 35.3044C0.495029 34.6937 0.495029 33.7037 1.10568 33.093L10.2939 23.9048Z" fill="white"/>
<path d="M12.5053 21.6934C11.8947 22.3041 10.9046 22.3041 10.294 21.6934L1.10579 12.5052C0.495136 11.8946 0.495136 10.9045 1.10579 10.2939L1.37115 10.0285C6.90974 15.5671 15.8896 15.5671 21.4282 10.0285L21.6935 10.2939C22.3042 10.9045 22.3042 11.8946 21.6935 12.5052L12.5053 21.6934Z" fill="white"/>
</svg>
