<svg width="151" height="70" viewBox="0 0 151 70" fill="none" xmlns="http://www.w3.org/2000/svg">
<path d="M67.2536 23.8594H70.6708L63.4609 45.0009H58.2412L51.0313 23.8594H54.4109L60.8323 43.6115L67.2536 23.8594ZM77.8106 45.3389C76.4086 45.3389 75.2571 45.0009 74.3558 44.325C73.4796 43.6491 72.8287 42.7228 72.4031 41.5462C72.0026 40.3696 71.8023 39.0177 71.8023 37.4906C71.8023 35.9135 72.0151 34.5366 72.4407 33.3599C72.8663 32.1583 73.5172 31.2195 74.3934 30.5436C75.2946 29.8676 76.4337 29.5297 77.8106 29.5297C78.6617 29.5297 79.3877 29.6549 79.9886 29.9052C80.5894 30.1305 81.0901 30.4184 81.4906 30.7689C81.8912 31.1194 82.2166 31.4824 82.467 31.8579C82.7173 32.2084 82.8926 32.5213 82.9927 32.7967H83.0678V29.6423H86.2597V45.0009H83.5935L83.0678 42.2597H82.9927C82.8926 42.5351 82.7173 42.848 82.467 43.1985C82.2166 43.549 81.8787 43.8869 81.4531 44.2124C81.0525 44.5378 80.5518 44.8007 79.951 45.0009C79.3502 45.2263 78.6367 45.3389 77.8106 45.3389ZM79.0498 42.6727C80.0512 42.6727 80.8397 42.46 81.4155 42.0344C81.9913 41.5838 82.4044 40.9704 82.6547 40.1943C82.9051 39.4183 83.0302 38.5296 83.0302 37.5282C83.0302 36.4517 82.8926 35.5254 82.6172 34.7494C82.3668 33.9733 81.9538 33.385 81.378 32.9844C80.8022 32.5588 80.0261 32.3461 79.0498 32.3461C78.0234 32.3461 77.1972 32.5839 76.5714 33.0595C75.9705 33.5102 75.5324 34.1235 75.2571 34.8996C75.0067 35.6756 74.8816 36.5393 74.8816 37.4906C74.8816 38.467 75.0067 39.3557 75.2571 40.1568C75.5324 40.9329 75.9705 41.5462 76.5714 41.9968C77.1972 42.4474 78.0234 42.6727 79.0498 42.6727ZM89.2799 45.0009V29.6423H92.1714L92.4343 34.0734L92.3967 37.378V45.0009H89.2799ZM92.3967 38.0915L92.2841 34.7118C92.3091 34.1611 92.4343 33.5978 92.6596 33.022C92.8849 32.4212 93.2229 31.8704 93.6735 31.3697C94.1491 30.844 94.75 30.4309 95.476 30.1305C96.227 29.8051 97.1282 29.6423 98.1797 29.6423H98.8181V33.0971H98.1421C97.0156 33.0971 96.0768 33.2097 95.3258 33.4351C94.5747 33.6353 93.9864 33.9483 93.5608 34.3738C93.1352 34.7994 92.8348 35.3251 92.6596 35.951C92.4844 36.5769 92.3967 37.2904 92.3967 38.0915ZM101.045 45.0009V29.6423H103.711L104.237 33.2097H104.312C104.337 33.1096 104.437 32.8718 104.613 32.4963C104.788 32.1207 105.076 31.7202 105.476 31.2946C105.877 30.844 106.415 30.456 107.091 30.1305C107.767 29.8051 108.618 29.6423 109.645 29.6423C110.721 29.6423 111.597 29.8176 112.273 30.1681C112.974 30.4935 113.525 30.9441 113.926 31.5199C114.351 32.0707 114.652 32.6965 114.827 33.3975C115.002 34.0734 115.115 34.7744 115.165 35.5004C115.215 36.2014 115.24 36.8648 115.24 37.4906V45.0009H112.198V37.4531C112.198 36.5018 112.098 35.6506 111.898 34.8996C111.697 34.1235 111.334 33.5227 110.809 33.0971C110.283 32.6465 109.494 32.4212 108.443 32.4212C107.392 32.4212 106.553 32.6715 105.927 33.1722C105.326 33.6729 104.888 34.3238 104.613 35.1249C104.362 35.9009 104.237 36.7521 104.237 37.6784V45.0009H101.045ZM122.602 45.0009C121.551 45.0009 120.774 44.7256 120.274 44.1748C119.773 43.6241 119.523 42.7854 119.523 41.6589V31.5199H122.489V42.5225H126.057V45.0009H122.602ZM117.157 31.8954V29.6423C117.733 29.6423 118.196 29.6048 118.546 29.5297C118.922 29.4546 119.197 29.3044 119.373 29.0791C119.573 28.8287 119.711 28.4407 119.786 27.915C119.861 27.3642 119.898 26.6257 119.898 25.6994H122.489V29.6423H126.019V31.8954H117.157ZM129.587 45.0009V29.6423H132.704V45.0009H129.587ZM131.164 27.5019C130.438 27.5019 129.938 27.3141 129.662 26.9386C129.412 26.5631 129.287 26.125 129.287 25.6243C129.287 25.1487 129.412 24.7356 129.662 24.3851C129.938 24.0096 130.438 23.8218 131.164 23.8218C131.89 23.8218 132.366 24.0096 132.591 24.3851C132.842 24.7356 132.967 25.1487 132.967 25.6243C132.967 26.125 132.842 26.5631 132.591 26.9386C132.366 27.3141 131.89 27.5019 131.164 27.5019ZM134.754 45.0009L140.387 37.0776L135.054 29.6423H138.509L142.339 35.2L146.17 29.6423H149.662L144.33 37.0776L150 45.0009H146.508L142.339 38.9927L138.209 45.0009H134.754Z" fill="white"/>
<path d="M15.6151 36.262C16.5414 35.3356 18.0432 35.3356 18.9695 36.262L32.9073 50.1998C33.8337 51.1261 33.8337 52.6279 32.9073 53.5542L32.5048 53.9568C24.1032 45.5551 10.4814 45.5551 2.07977 53.9568L1.67723 53.5542C0.750924 52.6279 0.750924 51.1261 1.67723 50.1998L15.6151 36.262Z" fill="white"/>
<path d="M18.9696 32.9073C18.0433 33.8336 16.5415 33.8337 15.6152 32.9073L1.67735 18.9695C0.751042 18.0432 0.751042 16.5414 1.67735 15.615L2.07989 15.2125C10.4815 23.6142 24.1033 23.6142 32.5049 15.2125L32.9075 15.615C33.8338 16.5414 33.8338 18.0432 32.9075 18.9695L18.9696 32.9073Z" fill="white"/>
</svg>
