<svg width="49" height="97" viewBox="0 0 49 97" fill="none" xmlns="http://www.w3.org/2000/svg">
<path d="M21.7755 50.8087C23.0672 49.517 25.1616 49.517 26.4534 50.8087L45.8899 70.2453C47.1817 71.537 47.1817 73.6314 45.8899 74.9231L45.3286 75.4845C33.6123 63.7682 14.6165 63.7682 2.90028 75.4845L2.33893 74.9231C1.04718 73.6314 1.04718 71.537 2.33893 70.2453L21.7755 50.8087Z" fill="white"/>
<path d="M26.4535 45.8899C25.1618 47.1817 23.0674 47.1817 21.7757 45.8899L2.3391 26.4533C1.04734 25.1616 1.04734 23.0672 2.3391 21.7755L2.90045 21.2141C14.6167 32.9304 33.6125 32.9304 45.3287 21.2141L45.8901 21.7755C47.1818 23.0672 47.1818 25.1616 45.8901 26.4533L26.4535 45.8899Z" fill="white"/>
</svg>
