<svg width="23" height="46" viewBox="0 0 23 46" fill="none" xmlns="http://www.w3.org/2000/svg">
<path d="M10.2939 23.9049C10.9045 23.2942 11.8946 23.2942 12.5052 23.9049L21.6934 33.0931C22.3041 33.7037 22.3041 34.6938 21.6934 35.3044L21.428 35.5698C15.8895 30.0312 6.90963 30.0312 1.37104 35.5698L1.10568 35.3044C0.495029 34.6938 0.495029 33.7037 1.10568 33.0931L10.2939 23.9049Z" fill="black"/>
<path d="M12.5053 21.6933C11.8947 22.3039 10.9046 22.3039 10.294 21.6933L1.10579 12.5051C0.495136 11.8944 0.495136 10.9044 1.10579 10.2937L1.37115 10.0284C6.90974 15.567 15.8896 15.567 21.4282 10.0284L21.6935 10.2937C22.3042 10.9044 22.3042 11.8944 21.6935 12.5051L12.5053 21.6933Z" fill="black"/>
</svg>
