<svg width="18" height="20" viewBox="0 0 18 20" fill="none" xmlns="http://www.w3.org/2000/svg">
<path d="M17.8953 13.9286C17.9867 14.0923 18.0115 14.2867 17.9643 14.4693C17.9172 14.6519 17.8018 14.8077 17.6436 14.9027L9.34074 19.9028C9.23494 19.9664 9.11466 20 8.99219 20C8.86972 20 8.74944 19.9664 8.64364 19.9028L0.340764 14.9027C0.18482 14.806 0.0720604 14.6497 0.0268979 14.4678C-0.0182645 14.2858 0.00780497 14.0929 0.099462 13.9306C0.191119 13.7684 0.340987 13.6499 0.516619 13.6009C0.692252 13.5519 0.879513 13.5763 1.03786 13.6688L8.99479 18.459L16.9517 13.6688C17.1103 13.5744 17.2986 13.5488 17.4755 13.5975C17.6523 13.6462 17.8033 13.7653 17.8953 13.9286ZM16.9517 9.38303L8.99479 14.1732L1.03786 9.38303C0.880316 9.30205 0.698803 9.2861 0.530264 9.33841C0.361726 9.39072 0.218829 9.50736 0.13066 9.6646C0.0424914 9.82184 0.0156764 10.0079 0.0556733 10.1848C0.0956702 10.3617 0.199473 10.5163 0.345953 10.617L8.64883 15.617C8.75463 15.6807 8.87491 15.7143 8.99738 15.7143C9.11985 15.7143 9.24013 15.6807 9.34593 15.617L17.6488 10.617C17.7286 10.5704 17.7985 10.5079 17.8547 10.4332C17.9109 10.3585 17.9521 10.273 17.976 10.1817C17.9999 10.0903 18.006 9.99503 17.994 9.90126C17.9819 9.8075 17.9519 9.71714 17.9058 9.63543C17.8596 9.55372 17.7982 9.48229 17.7251 9.42528C17.652 9.36828 17.5686 9.32683 17.4799 9.30335C17.3911 9.27987 17.2987 9.27482 17.208 9.2885C17.1174 9.30218 17.0302 9.33431 16.9517 9.38303ZM0 5.71426C0.000275934 5.58915 0.0323771 5.46631 0.0930908 5.35803C0.153805 5.24976 0.241001 5.15984 0.345953 5.09729L8.64883 0.0972511C8.75463 0.0335597 8.87491 0 8.99738 0C9.11985 0 9.24013 0.0335597 9.34593 0.0972511L17.6488 5.09729C17.7533 5.16019 17.8399 5.25026 17.9001 5.35851C17.9604 5.46676 17.992 5.58942 17.992 5.71426C17.992 5.83909 17.9604 5.96175 17.9001 6.07C17.8399 6.17825 17.7533 6.26832 17.6488 6.33122L9.34593 11.3313C9.24013 11.395 9.11985 11.4285 8.99738 11.4285C8.87491 11.4285 8.75463 11.395 8.64883 11.3313L0.345953 6.33122C0.241001 6.26867 0.153805 6.17876 0.0930908 6.07048C0.0323771 5.9622 0.000275934 5.83936 0 5.71426ZM2.06534 5.71426L8.99479 9.8875L15.9242 5.71426L8.99479 1.54101L2.06534 5.71426Z" fill="#4374FA"/>
</svg>
