<svg width="20" height="20" viewBox="0 0 20 20" fill="none" xmlns="http://www.w3.org/2000/svg">
<path d="M10 20C9.89114 19.998 9.78328 19.9787 9.68047 19.9428C6.58118 18.5655 3.98839 16.2536 2.26381 13.3295C0.53924 10.4055 -0.231106 7.01515 0.0602448 3.63154C0.070219 3.44063 0.144467 3.25873 0.270883 3.1155C0.3973 2.97227 0.568429 2.87616 0.75637 2.84284C3.84202 2.37533 6.83926 1.4427 9.64623 0.0766586C9.75735 0.0261371 9.87797 0 10 0C10.122 0 10.2427 0.0261371 10.3538 0.0766586C13.1607 1.4427 16.158 2.37533 19.2436 2.84284C19.4316 2.87616 19.6027 2.97227 19.7291 3.1155C19.8555 3.25873 19.9298 3.44063 19.9398 3.63154C20.2311 7.01515 19.4608 10.4055 17.7362 13.3295C16.0116 16.2536 13.4188 18.5655 10.3195 19.9428C10.2167 19.9787 10.1089 19.998 10 20ZM1.73779 4.40881C1.5678 7.27438 2.26559 10.1246 3.73981 12.5863C5.21403 15.048 7.39597 17.0065 10 18.2054C12.604 17.0065 14.786 15.048 16.2602 12.5863C17.7344 10.1246 18.4322 7.27438 18.2622 4.40881C15.4009 3.92174 12.6205 3.04088 10 1.79123C7.37949 3.04088 4.59911 3.92174 1.73779 4.40881Z" fill="#70AE1C"/>
</svg>
