<svg width="28" height="20" viewBox="0 0 28 20" fill="none" xmlns="http://www.w3.org/2000/svg">
<path d="M5.14578 20L0 14.9033L1.10133 13.7955L4.368 17.031V5.15523C4.368 3.71723 4.87252 2.49852 5.88156 1.49911C6.89059 0.499705 8.12104 0 9.57289 0C11.0247 0 12.2552 0.499705 13.2642 1.49911C14.2733 2.49955 14.7778 3.71877 14.7778 5.15677V14.8448C14.7778 15.8503 15.1324 16.7039 15.8418 17.4054C16.5501 18.108 17.4119 18.4593 18.4271 18.4593C19.4424 18.4593 20.3047 18.108 21.014 17.4054C21.7233 16.7029 22.0775 15.8493 22.0764 14.8448V2.96895L18.8098 6.20445L17.71 5.09668L22.8542 0L28 5.09668L26.8987 6.20599L23.632 2.9705V14.8448C23.632 16.2828 23.1275 17.5015 22.1184 18.5009C21.1094 19.5003 19.879 20 18.4271 20C16.9753 20 15.7448 19.5003 14.7358 18.5009C13.7267 17.5015 13.2222 16.2828 13.2222 14.8448V5.15677C13.2222 4.15017 12.8676 3.2961 12.1582 2.59456C11.4499 1.892 10.5881 1.54071 9.57289 1.54071C8.55763 1.54071 7.69533 1.892 6.986 2.59456C6.27667 3.29713 5.92252 4.1512 5.92356 5.15677V17.031L9.19022 13.7955L10.2916 14.9049L5.14578 20Z" fill="#4374FA"/>
</svg>
