<svg width="21" height="21" viewBox="0 0 21 21" fill="none" xmlns="http://www.w3.org/2000/svg">
<path d="M20.5 10.5C20.5 4.97727 16.0227 0.5 10.5 0.5M20.5 10.5C20.5 16.0227 16.0227 20.5 10.5 20.5M20.5 10.5C20.5 12.5091 16.0227 14.1364 10.5 14.1364C4.97727 14.1364 0.5 12.5091 0.5 10.5M10.5 0.5C4.97727 0.5 0.5 4.97727 0.5 10.5M10.5 0.5C13.01 0.5 15.0455 4.97727 15.0455 10.5C15.0455 16.0227 13.01 20.5 10.5 20.5M10.5 0.5C7.99 0.5 5.95455 4.97727 5.95455 10.5C5.95455 16.0227 7.99 20.5 10.5 20.5M10.5 20.5C4.97727 20.5 0.5 16.0227 0.5 10.5" stroke="#7352DD"/>
</svg>
