<svg width="15" height="24" viewBox="0 0 15 24" fill="none" xmlns="http://www.w3.org/2000/svg">
<path fill-rule="evenodd" clip-rule="evenodd" d="M6.96928e-10 2.11091C6.96928e-10 1.55106 0.222398 1.01414 0.61827 0.61827C1.01414 0.222398 1.55106 0 2.11091 0H12.6654C13.2253 0 13.7622 0.222398 14.1581 0.61827C14.5539 1.01414 14.7763 1.55106 14.7763 2.11091V4.07405C14.7762 4.94284 14.5617 5.79816 14.1516 6.5641C13.7416 7.33004 13.1488 7.98291 12.4259 8.46474L9.29116 10.5545L12.4259 12.6443C13.1488 13.1262 13.7416 13.779 14.1516 14.545C14.5617 15.3109 14.7762 16.1662 14.7763 17.035V18.9982C14.7763 19.558 14.5539 20.0949 14.1581 20.4908C13.7622 20.8867 13.2253 21.1091 12.6654 21.1091H2.11091C1.55106 21.1091 1.01414 20.8867 0.61827 20.4908C0.222398 20.0949 6.96929e-10 19.558 6.96928e-10 18.9982V17.035C-1.41156e-05 16.1663 0.214418 15.3111 0.624265 14.5451C1.03411 13.7792 1.6267 13.1263 2.34944 12.6443L5.48625 10.5545L2.35155 8.46474C1.62842 7.98303 1.03542 7.33022 0.625196 6.56427C0.214972 5.79832 0.000217541 4.94293 6.96928e-10 4.07405V2.11091ZM7.38817 9.28588L11.2554 6.70741C11.6889 6.41838 12.0445 6.02682 12.2904 5.56746C12.5364 5.1081 12.6652 4.59513 12.6654 4.07405V2.11091H2.11091V4.07405C2.11112 4.59513 2.23992 5.1081 2.4859 5.56746C2.73188 6.02682 3.08742 6.41838 3.52099 6.70741L7.38817 9.28588ZM7.38817 11.8232L3.52099 14.4017C3.08742 14.6907 2.73188 15.0822 2.4859 15.5416C2.23992 16.001 2.11112 16.5139 2.11091 17.035V18.9982H12.6654V17.035C12.6652 16.5139 12.5364 16.001 12.2904 15.5416C12.0445 15.0822 11.6889 14.6907 11.2554 14.4017L7.38817 11.8232Z" fill="#4374FA"/>
</svg>
