<svg width="35" height="70" viewBox="0 0 35 70" fill="none" xmlns="http://www.w3.org/2000/svg">
<path d="M15.6151 36.262C16.5414 35.3356 18.0432 35.3356 18.9695 36.262L32.9073 50.1998C33.8337 51.1261 33.8337 52.6279 32.9073 53.5542L32.5048 53.9568C24.1032 45.5551 10.4814 45.5551 2.07977 53.9568L1.67723 53.5542C0.750924 52.6279 0.750924 51.1261 1.67723 50.1998L15.6151 36.262Z" fill="white"/>
<path d="M18.9697 32.9074C18.0433 33.8337 16.5415 33.8337 15.6152 32.9074L1.67737 18.9695C0.751058 18.0432 0.751058 16.5414 1.67737 15.6151L2.07991 15.2125C10.4815 23.6142 24.1033 23.6142 32.5049 15.2125L32.9075 15.6151C33.8338 16.5414 33.8338 18.0432 32.9075 18.9695L18.9697 32.9074Z" fill="white"/>
</svg>
