<svg width="25" height="25" viewBox="0 0 25 25" fill="none" xmlns="http://www.w3.org/2000/svg">
<g clip-path="url(#clip0_334_8)">
<path d="M23.876 15.05C22.2567 21.546 15.6753 25.4948 9.18867 23.8754C2.69255 22.2562 -1.25625 15.675 0.363092 9.18848C1.98234 2.69255 8.5542 -1.25625 15.0503 0.363092C21.537 1.97287 25.4953 8.55401 23.876 15.05Z" fill="#F7931A"/>
<path d="M17.8897 10.6091C18.1264 8.99954 16.905 8.12846 15.2197 7.55091L15.7688 5.36376L14.4433 5.03237L13.9131 7.16271C13.5627 7.0775 13.2029 6.99228 12.8432 6.91654L13.3734 4.77673L12.0478 4.44534L11.5081 6.62302C11.2146 6.55675 10.9306 6.49047 10.656 6.42419V6.41472L8.81918 5.96025L8.46886 7.38048C8.46886 7.38048 9.45355 7.60771 9.43461 7.61718C9.9743 7.74974 10.069 8.10953 10.05 8.39357L9.42514 10.8837C9.46302 10.8932 9.51036 10.9026 9.56717 10.931C9.51982 10.9216 9.47248 10.9121 9.42514 10.8932L8.55407 14.3775C8.48779 14.5384 8.31737 14.7846 7.94811 14.6899C7.95758 14.7088 6.98235 14.4532 6.98235 14.4532L6.31958 15.9776L8.05226 16.4131C8.37417 16.4983 8.68662 16.5741 8.99907 16.6593L8.44992 18.8654L9.77547 19.1968L10.3246 17.0096C10.6844 17.1043 11.0442 17.199 11.3851 17.2842L10.8454 19.4619L12.1709 19.7933L12.7201 17.5872C14.9924 18.0132 16.6967 17.8428 17.4068 15.7882C17.9844 14.1408 17.3784 13.1845 16.1854 12.5596C17.066 12.3607 17.7193 11.7832 17.8897 10.6091ZM14.8504 14.8698C14.4433 16.5173 11.6596 15.6273 10.7602 15.4L11.4892 12.4744C12.3887 12.7016 15.2859 13.1466 14.8504 14.8698ZM15.267 10.5807C14.8883 12.0862 12.578 11.3192 11.8301 11.1299L12.4928 8.47879C13.2408 8.66815 15.6552 9.01847 15.267 10.5807Z" fill="white"/>
</g>
<defs>
<clipPath id="clip0_334_8">
<rect width="24.2385" height="24.2385" fill="white"/>
</clipPath>
</defs>
</svg>
