<svg width="99" height="26" viewBox="0 0 99 26" fill="none" xmlns="http://www.w3.org/2000/svg">
<path d="M43.7841 6.11779H46.0368L41.2838 20.0549H37.8429L33.0899 6.11779H35.3178L39.551 19.1389L43.7841 6.11779ZM50.7435 20.2777C49.8193 20.2777 49.0602 20.0549 48.466 19.6093C47.8884 19.1637 47.4593 18.5531 47.1788 17.7774C46.9147 17.0018 46.7827 16.1106 46.7827 15.1039C46.7827 14.0642 46.923 13.1565 47.2035 12.3808C47.4841 11.5887 47.9132 10.9698 48.4908 10.5242C49.0849 10.0786 49.8358 9.8558 50.7435 9.8558C51.3046 9.8558 51.7832 9.93832 52.1793 10.1034C52.5754 10.2519 52.9054 10.4417 53.1695 10.6727C53.4336 10.9038 53.6481 11.1431 53.8131 11.3906C53.9782 11.6217 54.0937 11.828 54.1597 12.0095H54.2092V9.93007H56.3134V20.0549H54.5558L54.2092 18.2478H54.1597C54.0937 18.4293 53.9782 18.6356 53.8131 18.8666C53.6481 19.0977 53.4253 19.3205 53.1447 19.535C52.8807 19.7496 52.5506 19.9228 52.1545 20.0549C51.7585 20.2034 51.2881 20.2777 50.7435 20.2777ZM51.5604 18.5201C52.2206 18.5201 52.7404 18.3798 53.12 18.0992C53.4996 17.8022 53.7719 17.3978 53.9369 16.8862C54.1019 16.3746 54.1845 15.7888 54.1845 15.1286C54.1845 14.419 54.0937 13.8084 53.9122 13.2967C53.7471 12.7851 53.4748 12.3973 53.0952 12.1333C52.7157 11.8527 52.2041 11.7124 51.5604 11.7124C50.8838 11.7124 50.3392 11.8692 49.9266 12.1828C49.5305 12.4798 49.2417 12.8842 49.0602 13.3958C48.8951 13.9074 48.8126 14.4767 48.8126 15.1039C48.8126 15.7475 48.8951 16.3334 49.0602 16.8615C49.2417 17.3731 49.5305 17.7774 49.9266 18.0745C50.3392 18.3715 50.8838 18.5201 51.5604 18.5201ZM58.3044 20.0549V9.93007H60.2106L60.3839 12.8512L60.3591 15.0296V20.0549H58.3044ZM60.3591 15.4999L60.2848 13.272C60.3013 12.9089 60.3839 12.5376 60.5324 12.158C60.6809 11.7619 60.9037 11.3989 61.2008 11.0688C61.5143 10.7222 61.9104 10.4499 62.389 10.2519C62.8841 10.0373 63.4782 9.93007 64.1714 9.93007H64.5922V12.2075H64.1466C63.404 12.2075 62.7851 12.2818 62.29 12.4303C61.7949 12.5623 61.4071 12.7686 61.1265 13.0492C60.8459 13.3298 60.6479 13.6763 60.5324 14.0889C60.4169 14.5015 60.3591 14.9718 60.3591 15.4999ZM66.0605 20.0549V9.93007H67.8181L68.1647 12.2818H68.2142C68.2307 12.2158 68.2967 12.059 68.4122 11.8114C68.5277 11.5639 68.7175 11.2998 68.9816 11.0193C69.2456 10.7222 69.6005 10.4664 70.046 10.2519C70.4916 10.0373 71.0528 9.93007 71.7294 9.93007C72.439 9.93007 73.0166 10.0456 73.4622 10.2766C73.9243 10.4912 74.2874 10.7882 74.5515 11.1678C74.832 11.5309 75.0301 11.9435 75.1456 12.4056C75.2611 12.8512 75.3354 13.3133 75.3684 13.7918C75.4014 14.2539 75.4179 14.6913 75.4179 15.1039V20.0549H73.4127V15.0791C73.4127 14.452 73.3467 13.8909 73.2147 13.3958C73.0827 12.8842 72.8434 12.4881 72.4968 12.2075C72.1502 11.9105 71.6304 11.7619 70.9372 11.7619C70.2441 11.7619 69.6912 11.927 69.2786 12.257C68.8826 12.5871 68.5938 13.0162 68.4122 13.5443C68.2472 14.0559 68.1647 14.617 68.1647 15.2276V20.0549H66.0605ZM80.2712 20.0549C79.5781 20.0549 79.0665 19.8733 78.7364 19.5103C78.4063 19.1472 78.2413 18.5943 78.2413 17.8517V11.1678H80.197V18.421H82.5487V20.0549H80.2712ZM76.6817 11.4154V9.93007C77.0613 9.93007 77.3666 9.90531 77.5977 9.8558C77.8452 9.80629 78.0268 9.70727 78.1423 9.55874C78.2743 9.39371 78.3651 9.1379 78.4146 8.79133C78.4641 8.42826 78.4889 7.94141 78.4889 7.33079H80.197V9.93007H82.5239V11.4154H76.6817ZM84.876 20.0549V9.93007H86.9307V20.0549H84.876ZM85.9158 8.51903C85.4372 8.51903 85.1071 8.39525 84.9256 8.1477C84.7605 7.90015 84.678 7.61134 84.678 7.28128C84.678 6.96771 84.7605 6.69541 84.9256 6.46436C85.1071 6.21681 85.4372 6.09304 85.9158 6.09304C86.3944 6.09304 86.7079 6.21681 86.8564 6.46436C87.0215 6.69541 87.104 6.96771 87.104 7.28128C87.104 7.61134 87.0215 7.90015 86.8564 8.1477C86.7079 8.39525 86.3944 8.51903 85.9158 8.51903ZM88.2822 20.0549L91.9954 14.8316L88.4802 9.93007H90.7577L93.2827 13.5938L95.8077 9.93007H98.1099L94.5947 14.8316L98.3327 20.0549H96.0305L93.2827 16.0941L90.5596 20.0549H88.2822Z" fill="white"/>
<path d="M9.74308 14.1376C10.3537 13.527 11.3438 13.527 11.9544 14.1376L21.1426 23.3258C21.7533 23.9365 21.7533 24.9265 21.1426 25.5372L20.8773 25.8025C15.3387 20.2639 6.35885 20.2639 0.82026 25.8025L0.554897 25.5372C-0.0557522 24.9265 -0.0557522 23.9365 0.554897 23.3258L9.74308 14.1376Z" fill="white"/>
<path d="M11.9561 11.9262C11.3455 12.5368 10.3554 12.5368 9.74478 11.9262L0.556591 2.738C-0.0540579 2.12735 -0.0540579 1.13729 0.556591 0.526646L0.821955 0.261283C6.36054 5.79987 15.3404 5.79987 20.879 0.261283L21.1443 0.526646C21.755 1.1373 21.755 2.12735 21.1443 2.738L11.9561 11.9262Z" fill="white"/>
</svg>
