<svg width="35" height="70" viewBox="0 0 35 70" fill="none" xmlns="http://www.w3.org/2000/svg">
<path d="M15.6151 36.2622C16.5414 35.3359 18.0432 35.3359 18.9695 36.2622L32.9073 50.2C33.8337 51.1263 33.8337 52.6282 32.9073 53.5545L32.5048 53.957C24.1032 45.5554 10.4814 45.5554 2.07977 53.957L1.67723 53.5545C0.750924 52.6282 0.750924 51.1263 1.67723 50.2L15.6151 36.2622Z" fill="black"/>
<path d="M18.9697 32.9074C18.0433 33.8337 16.5415 33.8337 15.6152 32.9074L1.67737 18.9695C0.751058 18.0432 0.751058 16.5414 1.67737 15.6151L2.07991 15.2125C10.4815 23.6142 24.1033 23.6142 32.5049 15.2125L32.9075 15.6151C33.8338 16.5414 33.8338 18.0432 32.9075 18.9695L18.9697 32.9074Z" fill="black"/>
</svg>
