<svg width="20" height="20" viewBox="0 0 20 20" fill="none" xmlns="http://www.w3.org/2000/svg">
<path d="M7.5 12.5H10.625C11.3125 12.5 11.875 11.9375 11.875 11.25C11.875 10.5625 11.3125 10 10.625 10H9.375C8.6875 10 8.125 9.4375 8.125 8.75C8.125 8.0625 8.6875 7.5 9.375 7.5H12.5M10 5.625V7.08375M10 11.875V14.375M18.125 10C18.125 12.1549 17.269 14.2215 15.7452 15.7452C14.2215 17.269 12.1549 18.125 10 18.125C7.84512 18.125 5.77849 17.269 4.25476 15.7452C2.73102 14.2215 1.875 12.1549 1.875 10C1.875 7.84512 2.73102 5.77849 4.25476 4.25476C5.77849 2.73102 7.84512 1.875 10 1.875C12.1549 1.875 14.2215 2.73102 15.7452 4.25476C17.269 5.77849 18.125 7.84512 18.125 10Z" stroke="white" stroke-miterlimit="10" stroke-linejoin="round"/>
</svg>
