<svg width="48" height="48" viewBox="0 0 48 48" fill="none" xmlns="http://www.w3.org/2000/svg">
<g clip-path="url(#clip0_1375_1400)">
<path d="M9.05534 42.155V39.7345C9.05534 38.8066 8.49054 38.2014 7.52229 38.2014C7.03819 38.2014 6.51369 38.3628 6.15064 38.8873C5.86824 38.4435 5.46479 38.2014 4.85963 38.2014C4.4562 38.2014 4.05277 38.3224 3.73002 38.7662V38.2821H2.88281V42.155H3.73002V40.0169C3.73002 39.331 4.09311 39.0083 4.65792 39.0083C5.22274 39.0083 5.50514 39.3714 5.50514 40.0169V42.155H6.35234V40.0169C6.35234 39.331 6.75579 39.0083 7.28024 39.0083C7.84504 39.0083 8.12744 39.3714 8.12744 40.0169V42.155H9.05534ZM21.6021 38.2821H20.2304V37.1121H19.3832V38.2821H18.6167V39.0486H19.3832V40.8237C19.3832 41.7113 19.7463 42.2357 20.7145 42.2357C21.0776 42.2357 21.481 42.1147 21.7634 41.9533L21.5214 41.2272C21.2793 41.3885 20.9969 41.4289 20.7952 41.4289C20.3918 41.4289 20.2304 41.1868 20.2304 40.7834V39.0486H21.6021V38.2821ZM28.7831 38.2014C28.299 38.2014 27.9763 38.4435 27.7746 38.7662V38.2821H26.9274V42.155H27.7746V39.9765C27.7746 39.331 28.057 38.9679 28.5814 38.9679C28.7428 38.9679 28.9445 39.0083 29.1059 39.0486L29.348 38.2418C29.1866 38.2014 28.9445 38.2014 28.7831 38.2014ZM17.9308 38.6048C17.5274 38.3224 16.9626 38.2014 16.3574 38.2014C15.3892 38.2014 14.7437 38.6855 14.7437 39.4521C14.7437 40.0975 15.2278 40.4606 16.075 40.5817L16.4785 40.622C16.9222 40.7027 17.1643 40.8237 17.1643 41.0254C17.1643 41.3078 16.8416 41.5096 16.2768 41.5096C15.7119 41.5096 15.2682 41.3078 14.9858 41.1061L14.5823 41.7516C15.0261 42.0744 15.6313 42.2357 16.2364 42.2357C17.366 42.2357 18.0115 41.7113 18.0115 40.9851C18.0115 40.2993 17.487 39.9362 16.6802 39.8151L16.2768 39.7748C15.9137 39.7345 15.6313 39.6538 15.6313 39.4117C15.6313 39.1293 15.9137 38.9679 16.3574 38.9679C16.8416 38.9679 17.3257 39.1697 17.5677 39.2907L17.9308 38.6048ZM40.4423 38.2014C39.9582 38.2014 39.6355 38.4435 39.4338 38.7662V38.2821H38.5866V42.155H39.4338V39.9765C39.4338 39.331 39.7162 38.9679 40.2406 38.9679C40.402 38.9679 40.6037 39.0083 40.7651 39.0486L41.0071 38.2418C40.8458 38.2014 40.6037 38.2014 40.4423 38.2014ZM29.6304 40.2186C29.6304 41.3885 30.4372 42.2357 31.6879 42.2357C32.2527 42.2357 32.6561 42.1147 33.0595 41.792L32.6561 41.1061C32.3334 41.3482 32.0106 41.4692 31.6475 41.4692C30.9617 41.4692 30.4776 40.9851 30.4776 40.2186C30.4776 39.4924 30.9617 39.0083 31.6475 38.9679C32.0106 38.9679 32.3334 39.089 32.6561 39.331L33.0595 38.6452C32.6561 38.3224 32.2527 38.2014 31.6879 38.2014C30.4372 38.2014 29.6304 39.0486 29.6304 40.2186ZM37.4569 40.2186V38.2821H36.6097V38.7662C36.3273 38.4031 35.9239 38.2014 35.3994 38.2014C34.3102 38.2014 33.463 39.0486 33.463 40.2186C33.463 41.3885 34.3102 42.2357 35.3994 42.2357C35.9642 42.2357 36.3677 42.034 36.6097 41.6709V42.155H37.4569V40.2186ZM34.3505 40.2186C34.3505 39.5327 34.7943 38.9679 35.5205 38.9679C36.2063 38.9679 36.6904 39.4924 36.6904 40.2186C36.6904 40.9044 36.2063 41.4692 35.5205 41.4692C34.7943 41.4289 34.3505 40.9044 34.3505 40.2186ZM24.2244 38.2014C23.0948 38.2014 22.2879 39.0083 22.2879 40.2186C22.2879 41.4289 23.0948 42.2357 24.2647 42.2357C24.8295 42.2357 25.3943 42.0744 25.8381 41.7113L25.4347 41.1061C25.1119 41.3482 24.7085 41.5096 24.3051 41.5096C23.7806 41.5096 23.2561 41.2675 23.1351 40.5817H25.9995V40.2589C26.0398 39.0083 25.3136 38.2014 24.2244 38.2014ZM24.2244 38.9276C24.7488 38.9276 25.1119 39.2503 25.1926 39.8555H23.1754C23.2561 39.331 23.6192 38.9276 24.2244 38.9276ZM45.2432 40.2186V36.7491H44.396V38.7662C44.1136 38.4031 43.7101 38.2014 43.1857 38.2014C42.0964 38.2014 41.2492 39.0486 41.2492 40.2186C41.2492 41.3885 42.0964 42.2357 43.1857 42.2357C43.7505 42.2357 44.1539 42.034 44.396 41.6709V42.155H45.2432V40.2186ZM42.1368 40.2186C42.1368 39.5327 42.5805 38.9679 43.3067 38.9679C43.9925 38.9679 44.4767 39.4924 44.4767 40.2186C44.4767 40.9044 43.9925 41.4692 43.3067 41.4692C42.5805 41.4289 42.1368 40.9044 42.1368 40.2186ZM13.8158 40.2186V38.2821H12.9686V38.7662C12.6862 38.4031 12.2828 38.2014 11.7583 38.2014C10.669 38.2014 9.82184 39.0486 9.82184 40.2186C9.82184 41.3885 10.669 42.2357 11.7583 42.2357C12.3231 42.2357 12.7265 42.034 12.9686 41.6709V42.155H13.8158V40.2186ZM10.669 40.2186C10.669 39.5327 11.1128 38.9679 11.839 38.9679C12.5248 38.9679 13.0089 39.4924 13.0089 40.2186C13.0089 40.9044 12.5248 41.4692 11.839 41.4692C11.1128 41.4289 10.669 40.9044 10.669 40.2186Z" fill="white"/>
<path d="M30.3565 8.87109H17.6484V31.7054H30.3565V8.87109Z" fill="#FF5F00"/>
<path d="M18.4527 20.2883C18.4527 15.6488 20.6313 11.5338 23.9797 8.87111C21.5188 6.93466 18.4124 5.76471 15.0236 5.76471C6.99525 5.76471 0.5 12.26 0.5 20.2883C0.5 28.3166 6.99525 34.8118 15.0236 34.8118C18.4124 34.8118 21.5188 33.6419 23.9797 31.7054C20.6313 29.0831 18.4527 24.9277 18.4527 20.2883Z" fill="#EB001B"/>
<path d="M47.4993 20.2883C47.4993 28.3166 41.004 34.8118 32.9757 34.8118C29.5869 34.8118 26.4805 33.6419 24.0195 31.7054C27.4084 29.0428 29.5466 24.9277 29.5466 20.2883C29.5466 15.6488 27.368 11.5338 24.0195 8.87111C26.4805 6.93466 29.5869 5.76471 32.9757 5.76471C41.004 5.76471 47.4993 12.3003 47.4993 20.2883Z" fill="#F79E1B"/>
</g>
<defs>
<clipPath id="clip0_1375_1400">
<rect width="48" height="48" fill="white"/>
</clipPath>
</defs>
</svg>
