<svg width="30" height="30" viewBox="0 0 30 30" fill="none" xmlns="http://www.w3.org/2000/svg">
<path d="M5.77 23.75C5.19417 23.75 4.71375 23.5575 4.32875 23.1725C3.94375 22.7875 3.75083 22.3067 3.75 21.73V8.27C3.75 7.69417 3.94292 7.21375 4.32875 6.82875C4.71458 6.44375 5.19458 6.25083 5.76875 6.25H11.1562C11.4254 6.25 11.6871 6.30417 11.9413 6.4125C12.1954 6.5225 12.4129 6.66792 12.5938 6.84875L14.495 8.75H24.2313C24.8062 8.75 25.2867 8.94292 25.6725 9.32875C26.0583 9.71458 26.2508 10.195 26.25 10.77V21.7313C26.25 22.3062 26.0575 22.7867 25.6725 23.1725C25.2875 23.5583 24.8071 23.7508 24.2313 23.75H5.77ZM5.77 22.5H24.2313C24.4554 22.5 24.6396 22.4279 24.7837 22.2837C24.9279 22.1396 25 21.9554 25 21.7313V10.7687C25 10.5446 24.9279 10.3604 24.7837 10.2163C24.6396 10.0721 24.4554 10 24.2313 10H13.9937L11.7075 7.71625C11.6275 7.63625 11.5433 7.58042 11.455 7.54875C11.3683 7.51625 11.2775 7.5 11.1825 7.5H5.77C5.54583 7.5 5.36167 7.57208 5.2175 7.71625C5.07333 7.86042 5.00083 8.045 5 8.27V21.7313C5 21.9554 5.07208 22.1396 5.21625 22.2837C5.36042 22.4279 5.545 22.5 5.77 22.5Z" fill="#6B63DF"/>
</svg>
