<svg width="14" height="15" viewBox="0 0 14 15" fill="none" xmlns="http://www.w3.org/2000/svg">
<path d="M6.70866 2.20587C8.1784 2.20587 9.58794 2.79463 10.6272 3.84263C11.6665 4.89063 12.2503 6.31202 12.2503 7.79411C12.2503 9.2762 11.6665 10.6976 10.6272 11.7456C9.58794 12.7936 8.1784 13.3823 6.70866 13.3823C5.23892 13.3823 3.82937 12.7936 2.79011 11.7456C1.75084 10.6976 1.16699 9.2762 1.16699 7.79411C1.16699 6.31202 1.75084 4.89063 2.79011 3.84263C3.82937 2.79463 5.23892 2.20587 6.70866 2.20587ZM6.70866 2.79411C5.39363 2.79411 4.13246 3.32089 3.20259 4.25857C2.27272 5.19626 1.75033 6.46802 1.75033 7.79411C1.75033 9.12019 2.27272 10.392 3.20259 11.3296C4.13246 12.2673 5.39363 12.7941 6.70866 12.7941C7.3598 12.7941 8.00456 12.6648 8.60613 12.4135C9.2077 12.1622 9.75431 11.7939 10.2147 11.3296C10.6752 10.8653 11.0404 10.3142 11.2896 9.70752C11.5387 9.1009 11.667 8.45072 11.667 7.79411C11.667 6.46802 11.1446 5.19626 10.2147 4.25857C9.28486 3.32089 8.02369 2.79411 6.70866 2.79411ZM6.41699 4.55881H7.00033V7.74705L9.74199 9.34117L9.45033 9.85293L6.41699 8.08822V4.55881Z" fill="white" fill-opacity="0.5"/>
</svg>
