<svg width="24" height="24" viewBox="0 0 24 24" fill="none" xmlns="http://www.w3.org/2000/svg">
<path d="M12.0408 1.99999C6.58078 1.99999 2.13078 6.44999 2.13078 11.91C2.13078 13.66 2.59078 15.36 3.45078 16.86L2.05078 22L7.30078 20.62C8.75078 21.41 10.3808 21.83 12.0408 21.83C17.5008 21.83 21.9508 17.38 21.9508 11.92C21.9508 9.26999 20.9208 6.77999 19.0508 4.90999C18.1338 3.9841 17.0418 3.24996 15.8383 2.75036C14.6348 2.25075 13.3439 1.99568 12.0408 1.99999ZM12.0508 3.66999C14.2508 3.66999 16.3108 4.52999 17.8708 6.08999C18.6362 6.85551 19.243 7.7645 19.6566 8.76491C20.0701 9.76532 20.2822 10.8375 20.2808 11.92C20.2808 16.46 16.5808 20.15 12.0408 20.15C10.5608 20.15 9.11078 19.76 7.85078 19L7.55078 18.83L4.43078 19.65L5.26078 16.61L5.06078 16.29C4.23533 14.9784 3.79845 13.4597 3.80078 11.91C3.81078 7.36999 7.50078 3.66999 12.0508 3.66999ZM8.53078 7.32999C8.37078 7.32999 8.10078 7.38999 7.87078 7.63999C7.65078 7.88999 7.00078 8.49999 7.00078 9.70999C7.00078 10.93 7.89078 12.1 8.00078 12.27C8.14078 12.44 9.76078 14.94 12.2508 16C12.8408 16.27 13.3008 16.42 13.6608 16.53C14.2508 16.72 14.7908 16.69 15.2208 16.63C15.7008 16.56 16.6808 16.03 16.8908 15.45C17.1008 14.87 17.1008 14.38 17.0408 14.27C16.9708 14.17 16.8108 14.11 16.5608 14C16.3108 13.86 15.0908 13.26 14.8708 13.18C14.6408 13.1 14.5008 13.06 14.3108 13.3C14.1508 13.55 13.6708 14.11 13.5308 14.27C13.3808 14.44 13.2408 14.46 13.0008 14.34C12.7408 14.21 11.9408 13.95 11.0008 13.11C10.2608 12.45 9.77078 11.64 9.62078 11.39C9.50078 11.15 9.61078 11 9.73078 10.89C9.84078 10.78 10.0008 10.6 10.1008 10.45C10.2308 10.31 10.2708 10.2 10.3508 10.04C10.4308 9.86999 10.3908 9.72999 10.3308 9.60999C10.2708 9.49999 9.77078 8.25999 9.56078 7.76999C9.36078 7.28999 9.16078 7.34999 9.00078 7.33999C8.86078 7.33999 8.70078 7.32999 8.53078 7.32999Z" fill="#8EDD23"/>
</svg>
