<svg xmlns="http://www.w3.org/2000/svg" width="256" height="240" viewBox="0 0 256 240" fill="none">
  <path d="M241.881 0L143.022 73.473L161.079 30.143L241.881 0Z" fill="#E2761B" stroke="#E2761B" stroke-width="0.094" stroke-linecap="round" stroke-linejoin="round"/>
  <path d="M14.024 0L112.114 74.143L94.921 30.143L14.024 0Z" fill="#E4761B" stroke="#E4761B" stroke-width="0.094" stroke-linecap="round" stroke-linejoin="round"/>
  <path d="M206.534 174.076L180.428 214.237L236.089 229.568L252.033 174.853L206.534 174.076Z" fill="#E4761B" stroke="#E4761B" stroke-width="0.094" stroke-linecap="round" stroke-linejoin="round"/>
  <path d="M4.062 174.853L19.911 229.568L75.572 214.237L49.466 174.076L4.062 174.853Z" fill="#E4761B" stroke="#E4761B" stroke-width="0.094" stroke-linecap="round" stroke-linejoin="round"/>
  <path d="M72.483 104.42L57.06 127.277L112.298 129.778L110.278 70.5L72.483 104.42Z" fill="#E4761B" stroke="#E4761B" stroke-width="0.094" stroke-linecap="round" stroke-linejoin="round"/>
  <path d="M183.517 104.42L145.248 70.024L143.022 129.778L198.167 127.277L183.517 104.42Z" fill="#E4761B" stroke="#E4761B" stroke-width="0.094" stroke-linecap="round" stroke-linejoin="round"/>
  <path d="M75.572 214.237L108.935 198.042L80.118 175.229L75.572 214.237Z" fill="#E4761B" stroke="#E4761B" stroke-width="0.094" stroke-linecap="round" stroke-linejoin="round"/>
  <path d="M147.065 198.042L180.428 214.237L175.882 175.229L147.065 198.042Z" fill="#E4761B" stroke="#E4761B" stroke-width="0.094" stroke-linecap="round" stroke-linejoin="round"/>
  <path d="M180.428 214.237L147.065 198.042L149.745 220.099L149.461 229.092L180.428 214.237Z" fill="#D7C1B3" stroke="#D7C1B3" stroke-width="0.094" stroke-linecap="round" stroke-linejoin="round"/>
  <path d="M75.572 214.237L106.539 229.092L106.35 220.099L108.935 198.042L75.572 214.237Z" fill="#D7C1B3" stroke="#D7C1B3" stroke-width="0.094" stroke-linecap="round" stroke-linejoin="round"/>
  <path d="M107.116 161.093L79.261 152.855L98.93 143.768L107.116 161.093Z" fill="#233447" stroke="#233447" stroke-width="0.094" stroke-linecap="round" stroke-linejoin="round"/>
  <path d="M148.884 161.093L157.07 143.768L176.833 152.855L148.884 161.093Z" fill="#233447" stroke="#233447" stroke-width="0.094" stroke-linecap="round" stroke-linejoin="round"/>
  <path d="M75.572 214.237L80.307 174.076L49.466 174.853L75.572 214.237Z" fill="#CD6116" stroke="#CD6116" stroke-width="0.094" stroke-linecap="round" stroke-linejoin="round"/>
  <path d="M175.693 174.076L180.428 214.237L206.534 174.853L175.693 174.076Z" fill="#CD6116" stroke="#CD6116" stroke-width="0.094" stroke-linecap="round" stroke-linejoin="round"/>
  <path d="M198.167 127.277L143.022 129.778L148.884 161.093L157.07 143.768L176.833 152.855L198.167 127.277Z" fill="#CD6116" stroke="#CD6116" stroke-width="0.094" stroke-linecap="round" stroke-linejoin="round"/>
  <path d="M79.261 152.855L98.93 143.768L107.116 161.093L112.298 129.778L57.06 127.277L79.261 152.855Z" fill="#CD6116" stroke="#CD6116" stroke-width="0.094" stroke-linecap="round" stroke-linejoin="round"/>
  <path d="M57.06 127.277L80.118 175.229L79.261 152.855L57.06 127.277Z" fill="#E4751F" stroke="#E4751F" stroke-width="0.094" stroke-linecap="round" stroke-linejoin="round"/>
  <path d="M176.833 152.855L175.882 175.229L198.167 127.277L176.833 152.855Z" fill="#E4751F" stroke="#E4751F" stroke-width="0.094" stroke-linecap="round" stroke-linejoin="round"/>
  <path d="M112.298 129.778L107.116 161.093L113.545 194.399L115.013 147.95L112.298 129.778Z" fill="#E4751F" stroke="#E4751F" stroke-width="0.094" stroke-linecap="round" stroke-linejoin="round"/>
  <path d="M143.022 129.778L140.402 147.855L141.681 194.399L148.884 161.093L143.022 129.778Z" fill="#E4751F" stroke="#E4751F" stroke-width="0.094" stroke-linecap="round" stroke-linejoin="round"/>
  <path d="M148.884 161.093L141.681 194.399L147.065 198.042L175.882 175.229L176.833 152.855L148.884 161.093Z" fill="#F6851B" stroke="#F6851B" stroke-width="0.094" stroke-linecap="round" stroke-linejoin="round"/>
  <path d="M79.261 152.855L80.118 175.229L108.935 198.042L113.545 194.399L107.116 161.093L79.261 152.855Z" fill="#F6851B" stroke="#F6851B" stroke-width="0.094" stroke-linecap="round" stroke-linejoin="round"/>
  <path d="M149.461 229.092L149.745 220.099L147.254 217.88H108.746L106.35 220.099L106.539 229.092L75.572 214.237L86.116 222.888L108.463 238.712H147.537L169.979 222.888L180.428 214.237L149.461 229.092Z" fill="#C0AD9E" stroke="#C0AD9E" stroke-width="0.094" stroke-linecap="round" stroke-linejoin="round"/>
  <path d="M147.065 198.042L141.681 194.399H113.545L108.935 198.042L106.35 220.099L108.746 217.88H147.254L149.745 220.099L147.065 198.042Z" fill="#161616" stroke="#161616" stroke-width="0.094" stroke-linecap="round" stroke-linejoin="round"/>
  <path d="M246.238 78.121L255.905 32.788L241.881 0L147.065 70.5L183.517 104.42L234.732 119.374L246.616 105.562L241.503 101.919L249.878 94.344L243.543 89.37L251.918 82.936L246.238 78.121Z" fill="#763D16" stroke="#763D16" stroke-width="0.094" stroke-linecap="round" stroke-linejoin="round"/>
  <path d="M0.095 32.788L9.762 78.121L4.082 82.936L12.457 89.37L6.122 94.344L14.497 101.919L9.384 105.562L21.268 119.374L72.483 104.42L108.935 70.5L14.024 0L0.095 32.788Z" fill="#763D16" stroke="#763D16" stroke-width="0.094" stroke-linecap="round" stroke-linejoin="round"/>
  <path d="M234.732 119.374L183.517 104.42L198.167 127.277L175.882 175.229L206.534 174.853H252.033L234.732 119.374Z" fill="#F6851B" stroke="#F6851B" stroke-width="0.094" stroke-linecap="round" stroke-linejoin="round"/>
  <path d="M72.483 104.42L21.268 119.374L4.062 174.853H49.466L80.118 175.229L57.06 127.277L72.483 104.42Z" fill="#F6851B" stroke="#F6851B" stroke-width="0.094" stroke-linecap="round" stroke-linejoin="round"/>
  <path d="M143.022 129.778L147.065 70.5L161.079 30.143H94.921L108.935 70.5L112.298 129.778L113.45 148.044L113.545 194.399H141.681L141.869 148.044L143.022 129.778Z" fill="#F6851B" stroke="#F6851B" stroke-width="0.094" stroke-linecap="round" stroke-linejoin="round"/>
</svg>
