<svg width="203" height="20" viewBox="0 0 203 20" fill="none" xmlns="http://www.w3.org/2000/svg">
<path d="M0 0.352194H6.464C9.664 0.352194 12.416 1.66419 14.464 4.09619L15.328 5.08819L18.464 8.8322L20.288 6.68819L22.272 4.28819L22.432 4.09619C24.48 1.66419 27.264 0.352194 30.432 0.352194H36.928V19.2002H33.088V4.19219H30.432C28.384 4.19219 26.688 4.99219 25.376 6.56019L25.216 6.75219L23.104 9.24819L21.248 11.4882C20.544 12.3202 19.552 12.8002 18.464 12.8002C17.376 12.8002 16.384 12.3202 15.68 11.4882L12.384 7.55219L11.552 6.56019C10.24 4.99219 8.512 4.19219 6.464 4.19219H3.808V19.2002H0V0.352194ZM41.5938 0.00019455H45.4018V19.2002H41.5938V0.00019455ZM59.6305 0.00019455H83.5665V3.87219H59.6305C56.4945 3.87219 53.8705 6.46419 53.8705 9.63219C53.8705 12.7682 56.4945 15.3922 59.6305 15.3922H83.5665V19.2002H59.6305C54.3505 19.2002 50.0625 14.9122 50.0625 9.63219C50.0625 4.32019 54.3505 0.00019455 59.6305 0.00019455ZM92.058 16.0322V19.2002H88.25V16.0322C88.25 15.3602 88.346 14.6882 88.57 14.1122C89.37 11.8722 91.482 10.2722 93.978 10.2722H114.714C116.346 10.2722 117.754 9.02419 117.914 7.39219C117.914 7.2962 117.914 7.16819 117.914 7.0722C117.914 6.94419 117.914 6.81619 117.914 6.72019C117.754 5.08819 116.346 3.87219 114.714 3.87219H88.25V0.00019455H114.714C118.586 0.0321941 121.754 3.2002 121.754 7.0722C121.754 9.98419 119.93 12.5122 117.37 13.5682H117.402L122.106 19.2002H117.114L112.826 14.1122H93.978C92.954 14.1122 92.058 14.9762 92.058 16.0322ZM144.349 0.00019455H152.605C157.885 0.00019455 162.205 4.32019 162.205 9.63219C162.205 14.9122 157.885 19.2002 152.605 19.2002H144.349H136.349C131.069 19.2002 126.781 14.9122 126.781 9.63219C126.781 4.32019 131.069 0.00019455 136.349 0.00019455H144.349ZM144.349 15.3922H152.605C155.773 15.3922 158.365 12.7682 158.365 9.63219C158.365 6.43219 155.773 3.87219 152.605 3.87219H144.349H136.349C133.213 3.87219 130.589 6.46419 130.589 9.63219C130.589 12.7682 133.213 15.3922 136.349 15.3922H144.349ZM167.707 15.3922H194.619C195.675 15.3922 196.539 14.5282 196.539 13.4722C196.539 12.4162 195.675 11.5522 194.619 11.5522H172.635C169.467 11.5522 166.875 8.96019 166.875 5.79219C166.875 2.59219 169.435 0.00019455 172.603 0.00019455H199.547V3.87219H172.603C171.579 3.87219 170.683 4.73619 170.683 5.79219C170.683 6.81619 171.547 7.71219 172.603 7.71219H194.619C196.347 7.71219 197.947 8.4802 199.067 9.7922C202.171 13.5362 199.483 19.2002 194.619 19.2002H167.707V15.3922Z" fill="black"/>
</svg>
