<svg width="12" height="12" viewBox="0 0 12 12" fill="none" xmlns="http://www.w3.org/2000/svg">
<path d="M0.625 7.5C0.778083 7.50002 0.925836 7.55622 1.04023 7.65795C1.15463 7.75967 1.22771 7.89984 1.24563 8.05188L1.25 8.125V10H3.75C3.9093 10.0002 4.06252 10.0612 4.17836 10.1705C4.29419 10.2799 4.3639 10.4293 4.37323 10.5884C4.38257 10.7474 4.33083 10.904 4.22858 11.0261C4.12634 11.1483 3.98131 11.2268 3.82312 11.2456L3.75 11.25H1.25C0.93464 11.2501 0.630896 11.131 0.399657 10.9166C0.168419 10.7021 0.0267771 10.4082 0.00312507 10.0938L0 10V8.125C0 7.95924 0.065848 7.80027 0.183058 7.68306C0.300268 7.56585 0.45924 7.5 0.625 7.5ZM10.625 7.5C10.7908 7.5 10.9497 7.56585 11.0669 7.68306C11.1842 7.80027 11.25 7.95924 11.25 8.125V10C11.25 10.3315 11.1183 10.6495 10.8839 10.8839C10.6495 11.1183 10.3315 11.25 10 11.25H7.5C7.33424 11.25 7.17527 11.1842 7.05806 11.0669C6.94085 10.9497 6.875 10.7908 6.875 10.625C6.875 10.4592 6.94085 10.3003 7.05806 10.1831C7.17527 10.0658 7.33424 10 7.5 10H10V8.125C10 7.95924 10.0658 7.80027 10.1831 7.68306C10.3003 7.56585 10.4592 7.5 10.625 7.5ZM10.625 5C10.7843 5.00018 10.9375 5.06117 11.0534 5.17053C11.1692 5.27989 11.2389 5.42935 11.2482 5.58837C11.2576 5.7474 11.2058 5.90399 11.1036 6.02614C11.0013 6.1483 10.8563 6.22681 10.6981 6.24563L10.625 6.25H0.625C0.4657 6.24982 0.31248 6.18883 0.196645 6.07947C0.0808098 5.97011 0.0111031 5.82065 0.00176743 5.66163C-0.00756827 5.5026 0.0441716 5.34601 0.146416 5.22386C0.248659 5.1017 0.39369 5.02319 0.551875 5.00437L0.625 5H10.625ZM3.75 0C3.91576 0 4.07473 0.065848 4.19194 0.183058C4.30915 0.300268 4.375 0.45924 4.375 0.625C4.375 0.79076 4.30915 0.949731 4.19194 1.06694C4.07473 1.18415 3.91576 1.25 3.75 1.25H1.25V3.125C1.25 3.29076 1.18415 3.44973 1.06694 3.56694C0.949731 3.68415 0.79076 3.75 0.625 3.75C0.45924 3.75 0.300268 3.68415 0.183058 3.56694C0.065848 3.44973 0 3.29076 0 3.125V1.25C0 0.918479 0.131696 0.600537 0.366116 0.366116C0.600537 0.131696 0.918479 0 1.25 0H3.75ZM10 0C10.3315 0 10.6495 0.131696 10.8839 0.366116C11.1183 0.600537 11.25 0.918479 11.25 1.25V3.125C11.25 3.29076 11.1842 3.44973 11.0669 3.56694C10.9497 3.68415 10.7908 3.75 10.625 3.75C10.4592 3.75 10.3003 3.68415 10.1831 3.56694C10.0658 3.44973 10 3.29076 10 3.125V1.25H7.5C7.33424 1.25 7.17527 1.18415 7.05806 1.06694C6.94085 0.949731 6.875 0.79076 6.875 0.625C6.875 0.45924 6.94085 0.300268 7.05806 0.183058C7.17527 0.065848 7.33424 0 7.5 0H10Z" fill="#656565"/>
</svg>
