<svg width="22" height="22" viewBox="0 0 22 22" fill="none" xmlns="http://www.w3.org/2000/svg">
<path d="M13.2222 14.3333L16.5556 11M16.5556 11L13.2222 7.66667M16.5556 11H1M8.77778 6.55556V3.66667C8.77778 3.31648 8.84675 2.96971 8.98077 2.64618C9.11478 2.32264 9.3112 2.02867 9.55883 1.78105C10.0589 1.28095 10.7372 1 11.4444 1H18.3333C19.0406 1 19.7189 1.28095 20.219 1.78105C20.719 2.28115 21 2.95942 21 3.66667V18.3333C21 19.0406 20.719 19.7189 20.219 20.219C19.7189 20.719 19.0406 21 18.3333 21H11.4444C10.7372 21 10.0589 20.719 9.55883 20.219C9.05873 19.7189 8.77778 19.0406 8.77778 18.3333V15.4444" stroke="white" stroke-width="2" stroke-miterlimit="10" stroke-linecap="round" stroke-linejoin="round"/>
</svg>
