<svg width="16" height="16" viewBox="0 0 16 16" fill="none" xmlns="http://www.w3.org/2000/svg">
<path fill-rule="evenodd" clip-rule="evenodd" d="M10 0.833344H7.296C6.07067 0.833344 5.1 0.833344 4.34067 0.935344C3.55933 1.04068 2.92667 1.26201 2.42733 1.76068C1.92867 2.26001 1.70733 2.89268 1.602 3.67401C1.5 4.43401 1.5 5.40401 1.5 6.62934V10.6667C1.49988 11.2623 1.71244 11.8384 2.0994 12.2913C2.48636 12.7441 3.02228 13.0439 3.61067 13.1367C3.702 13.646 3.87867 14.0807 4.232 14.4347C4.63333 14.836 5.13867 15.008 5.73867 15.0893C6.31667 15.1667 7.052 15.1667 7.96333 15.1667H10.0367C10.948 15.1667 11.6833 15.1667 12.2613 15.0893C12.8613 15.008 13.3667 14.836 13.768 14.4347C14.1693 14.0333 14.3413 13.528 14.4227 12.928C14.5 12.35 14.5 11.6147 14.5 10.7033V7.29668C14.5 6.38534 14.5 5.65001 14.4227 5.07201C14.3413 4.47201 14.1693 3.96668 13.768 3.56534C13.414 3.21201 12.9793 3.03534 12.47 2.94401C12.3772 2.35563 12.0774 1.8197 11.6246 1.43274C11.1718 1.04578 10.5956 0.833224 10 0.833344ZM11.42 2.84734C11.3186 2.55134 11.1272 2.29445 10.8726 2.11263C10.618 1.9308 10.3129 1.83315 10 1.83334H7.33333C6.062 1.83334 5.15933 1.83468 4.47333 1.92668C3.80333 2.01668 3.41667 2.18601 3.13467 2.46801C2.85267 2.75001 2.68333 3.13668 2.59333 3.80668C2.50133 4.49268 2.5 5.39534 2.5 6.66668V10.6667C2.49981 10.9796 2.59746 11.2847 2.77928 11.5393C2.96111 11.7939 3.218 11.9853 3.514 12.0867C3.5 11.68 3.5 11.22 3.5 10.7033V7.29668C3.5 6.38534 3.5 5.65001 3.578 5.07201C3.658 4.47201 3.83133 3.96668 4.232 3.56534C4.63333 3.16401 5.13867 2.99201 5.73867 2.91134C6.31667 2.83334 7.052 2.83334 7.96333 2.83334H10.0367C10.5533 2.83334 11.0133 2.83334 11.42 2.84734ZM4.93867 4.27334C5.12333 4.08868 5.382 3.96868 5.872 3.90268C6.37467 3.83534 7.04267 3.83401 7.99933 3.83401H9.99933C10.956 3.83401 11.6233 3.83534 12.1273 3.90268C12.6167 3.96868 12.8753 4.08934 13.06 4.27334C13.2447 4.45801 13.3647 4.71668 13.4307 5.20668C13.498 5.70934 13.4993 6.37734 13.4993 7.33401V10.6673C13.4993 11.624 13.498 12.2913 13.4307 12.7953C13.3647 13.2847 13.244 13.5433 13.06 13.728C12.8753 13.9127 12.6167 14.0327 12.1267 14.0987C11.6233 14.166 10.956 14.1673 9.99933 14.1673H7.99933C7.04267 14.1673 6.37467 14.166 5.87133 14.0987C5.382 14.0327 5.12333 13.912 4.93867 13.728C4.754 13.5433 4.634 13.2847 4.568 12.7947C4.50067 12.2913 4.49933 11.624 4.49933 10.6673V7.33401C4.49933 6.37734 4.50067 5.70934 4.568 5.20601C4.634 4.71668 4.75467 4.45801 4.93867 4.27334Z" fill="white"/>
</svg>
