<svg width="12" height="3" viewBox="0 0 12 3" fill="none" xmlns="http://www.w3.org/2000/svg">
<path d="M0 1.494C0 0.942 0.156 0.558 0.468 0.342C0.78 0.114 1.158 0 1.602 0C2.022 0 2.388 0.114 2.7 0.342C3.012 0.558 3.168 0.942 3.168 1.494C3.168 2.022 3.012 2.406 2.7 2.646C2.388 2.874 2.022 2.988 1.602 2.988C1.158 2.988 0.78 2.874 0.468 2.646C0.156 2.406 0 2.022 0 1.494Z" fill="white"/>
<path d="M4.13156 1.494C4.13156 0.942 4.28756 0.558 4.59956 0.342C4.91156 0.114 5.28956 0 5.73356 0C6.15356 0 6.51956 0.114 6.83156 0.342C7.14356 0.558 7.29956 0.942 7.29956 1.494C7.29956 2.022 7.14356 2.406 6.83156 2.646C6.51956 2.874 6.15356 2.988 5.73356 2.988C5.28956 2.988 4.91156 2.874 4.59956 2.646C4.28756 2.406 4.13156 2.022 4.13156 1.494Z" fill="white"/>
<path d="M8.26312 1.494C8.26312 0.942 8.41912 0.558 8.73112 0.342C9.04313 0.114 9.42112 0 9.86512 0C10.2851 0 10.6511 0.114 10.9631 0.342C11.2751 0.558 11.4311 0.942 11.4311 1.494C11.4311 2.022 11.2751 2.406 10.9631 2.646C10.6511 2.874 10.2851 2.988 9.86512 2.988C9.42112 2.988 9.04313 2.874 8.73112 2.646C8.41912 2.406 8.26312 2.022 8.26312 1.494Z" fill="white"/>
</svg>
