<svg width="24" height="24" viewBox="0 0 24 24" fill="none" xmlns="http://www.w3.org/2000/svg">
<path fill-rule="evenodd" clip-rule="evenodd" d="M4.42058 3.18595C4.4891 3.11102 4.5764 3.05575 4.67345 3.02586C4.7705 2.99597 4.87377 2.99255 4.97258 3.01595L16.8766 5.92995C16.9482 5.9458 17.0155 5.97721 17.0736 6.02195L19.4956 7.78895C19.6135 7.87552 19.6933 8.00444 19.7181 8.14861C19.7429 8.29278 19.7108 8.44095 19.6286 8.56195L11.2966 20.753C11.2381 20.8395 11.1567 20.908 11.0615 20.9509C10.9663 20.9938 10.861 21.0094 10.7575 20.9959C10.6539 20.9824 10.5562 20.9404 10.4751 20.8745C10.3941 20.8087 10.333 20.7216 10.2986 20.623L4.30658 3.75295C4.27346 3.657 4.26657 3.55395 4.28661 3.45445C4.30665 3.35495 4.3529 3.2616 4.42058 3.18595ZM6.38358 6.22995L10.5436 17.942L11.2276 11.873L6.38358 6.22995ZM12.3416 12.068L11.6466 18.243L17.5306 9.63295L12.3416 12.068ZM18.0616 8.13795L14.2686 9.91795L16.8106 7.22695L18.0616 8.13795ZM15.6656 6.79495L6.41058 4.53095L11.8366 10.849L15.6656 6.79495Z" fill="#C4342B"/>
</svg>
