<svg width="32" height="32" viewBox="0 0 32 32" fill="none" xmlns="http://www.w3.org/2000/svg">
<path d="M25.6188 9.353C25.4504 9.5075 25.2309 9.59453 25.0023 9.5975H3.36935C2.60135 9.5975 2.21435 8.72 2.74535 8.2055L6.29885 4.7795C6.46395 4.61956 6.684 4.52886 6.91385 4.526H28.6294C29.4049 4.526 29.7844 5.411 29.2444 5.9285L25.6188 9.353Z" fill="url(#paint0_linear_1375_1377)"/>
<path d="M25.6188 26.237C25.4493 26.3888 25.2299 26.4731 25.0023 26.474H3.36935C2.60135 26.474 2.21435 25.604 2.74535 25.0895L6.29885 21.6545C6.46536 21.4979 6.68524 21.4104 6.91385 21.41H28.6294C29.4049 21.41 29.7844 22.289 29.2444 22.802L25.6188 26.237Z" fill="url(#paint1_linear_1375_1377)"/>
<path d="M25.6188 13.2095C25.4493 13.0577 25.2299 12.9734 25.0023 12.9725H3.36935C2.60135 12.9725 2.21435 13.8425 2.74535 14.357L6.29885 17.792C6.46535 17.9465 6.68435 18.032 6.91385 18.0365H28.6294C29.4049 18.0365 29.7844 17.1575 29.2444 16.6445L25.6188 13.2095Z" fill="url(#paint2_linear_1375_1377)"/>
<defs>
<linearGradient id="paint0_linear_1375_1377" x1="2.50085" y1="80.0615" x2="30.1878" y2="79.8065" gradientUnits="userSpaceOnUse">
<stop stop-color="#599DB0"/>
<stop offset="1" stop-color="#47F8C3"/>
</linearGradient>
<linearGradient id="paint1_linear_1375_1377" x1="2.50085" y1="11.252" x2="30.0108" y2="11.0405" gradientUnits="userSpaceOnUse">
<stop stop-color="#C44FE2"/>
<stop offset="1" stop-color="#73B0D0"/>
</linearGradient>
<linearGradient id="paint2_linear_1375_1377" x1="4.05335" y1="15.5045" x2="28.4539" y2="15.5045" gradientUnits="userSpaceOnUse">
<stop stop-color="#778CBF"/>
<stop offset="1" stop-color="#5DCDC9"/>
</linearGradient>
</defs>
</svg>
