<svg width="30" height="30" viewBox="0 0 30 30" fill="none" xmlns="http://www.w3.org/2000/svg">
<path d="M16.6913 16.7099L15.5851 19.6974C15.555 19.7802 15.555 19.8709 15.5851 19.9536L17.4888 25.0936L19.6888 23.8424L17.0476 16.7099C17.0341 16.6735 17.0098 16.6422 16.9779 16.62C16.9461 16.5979 16.9082 16.586 16.8694 16.586C16.8307 16.586 16.7928 16.5979 16.761 16.62C16.7291 16.6422 16.7048 16.6735 16.6913 16.7099ZM18.9088 11.6861C18.8953 11.6498 18.871 11.6184 18.8392 11.5963C18.8073 11.5741 18.7695 11.5623 18.7307 11.5623C18.6919 11.5623 18.654 11.5741 18.6222 11.5963C18.5904 11.6184 18.5661 11.6498 18.5526 11.6861L17.4463 14.6736C17.4162 14.7564 17.4162 14.8471 17.4463 14.9299L20.5638 23.3449L22.7651 22.0936L18.9088 11.6861Z" fill="white"/>
<path d="M14.9975 5.14375C15.0524 5.1458 15.1062 5.15988 15.155 5.185L23.5488 9.9575C23.596 9.9845 23.6354 10.0234 23.6631 10.0703C23.6907 10.1172 23.7056 10.1706 23.7063 10.225V19.7687C23.7063 19.88 23.6463 19.9812 23.5488 20.0362L15.155 24.81C15.1069 24.837 15.0526 24.8508 14.9975 24.85C14.9431 24.8482 14.8898 24.8345 14.8413 24.81L6.4475 20.0413C6.40004 20.0141 6.36051 19.9751 6.33288 19.9279C6.30524 19.8807 6.29046 19.8272 6.29 19.7725V10.2275C6.29 10.1163 6.35 10.015 6.4475 9.95875L14.8413 5.18625C14.8889 5.15913 14.9427 5.14451 14.9975 5.14375ZM14.9975 3.75C14.7 3.75 14.4 3.825 14.1325 3.97875L5.74125 8.75C5.47902 8.89758 5.26066 9.11211 5.10846 9.37169C4.95627 9.63127 4.87571 9.9266 4.875 10.2275V19.7712C4.875 20.38 5.205 20.9437 5.74125 21.2475L14.1337 26.0212C14.3981 26.1704 14.6965 26.2488 15 26.2488C15.3035 26.2488 15.6019 26.1704 15.8662 26.0212L24.2588 21.2488C24.521 21.1012 24.7393 20.8866 24.8915 20.6271C25.0437 20.3675 25.1243 20.0722 25.125 19.7712V10.2275C25.1243 9.9266 25.0437 9.63127 24.8915 9.37169C24.7393 9.11211 24.521 8.89758 24.2588 8.75L15.8638 3.97875C15.5997 3.82862 15.3012 3.74979 14.9975 3.75Z" fill="white"/>
<path d="M9.44859 23.3562L10.2198 21.2737L11.7748 22.5462L10.3211 23.8537L9.44859 23.3562ZM14.2911 9.54372H12.1636C12.086 9.54289 12.0101 9.56612 11.9463 9.61022C11.8825 9.65433 11.834 9.71712 11.8073 9.78997L7.24609 22.105L9.44859 23.3562L14.4698 9.79497C14.4799 9.76653 14.4829 9.73609 14.4787 9.70622C14.4745 9.67635 14.4631 9.64795 14.4456 9.62341C14.4281 9.59887 14.4048 9.57893 14.3779 9.56527C14.3511 9.55162 14.3213 9.5434 14.2911 9.54372Z" fill="white"/>
<path d="M18.0148 9.54371H15.886C15.8087 9.54314 15.733 9.56649 15.6695 9.61057C15.6059 9.65466 15.5576 9.71732 15.531 9.78996L10.3223 23.8525L12.5235 25.1025L18.1923 9.79496C18.2023 9.76662 18.2053 9.73629 18.2012 9.70652C18.197 9.67675 18.1858 9.64842 18.1684 9.62391C18.151 9.5994 18.1279 9.57944 18.1012 9.5657C18.0745 9.55196 18.0448 9.5436 18.0148 9.54371Z" fill="white"/>
</svg>
