<svg width="34" height="34" viewBox="0 0 34 34" fill="none" xmlns="http://www.w3.org/2000/svg">
<g clip-path="url(#clip0_953_131)">
<path d="M17 34C26.3888 34 34 26.3888 34 17C34 7.61116 26.3888 0 17 0C7.61116 0 0 7.61116 0 17C0 26.3888 7.61116 34 17 34Z" fill="#2E79CC"/>
<path d="M21.4064 19.363C21.4064 17.0374 20.0192 16.2333 17.2346 15.9103C15.2524 15.6383 14.8546 15.1181 14.8546 14.178C14.8546 13.2379 15.5227 12.648 16.847 12.648C17.3198 12.574 17.8034 12.6754 18.2066 12.9331C18.6099 13.1907 18.9051 13.5869 19.0366 14.0471C19.0712 14.1449 19.1348 14.2299 19.2189 14.2907C19.3031 14.3514 19.4037 14.3851 19.5075 14.3871H20.5496C20.6696 14.3876 20.785 14.341 20.8711 14.2575C20.9572 14.1739 21.0072 14.0599 21.0103 13.94V13.9094C20.8832 13.1902 20.5216 12.5332 19.9819 12.0412C19.4422 11.5491 18.7547 11.2496 18.0268 11.1894V9.53698C18.0268 9.27518 17.8296 9.07798 17.4964 9.00488H16.4526C16.1925 9.00488 15.9936 9.20208 15.9307 9.53698V11.067C15.0795 11.1 14.2719 11.4525 13.6689 12.0543C13.0659 12.656 12.7117 13.4628 12.6769 14.314C12.6769 16.5053 14.0012 17.374 16.7858 17.7038C18.6422 18.0268 19.2474 18.4348 19.2474 19.4871C19.2474 20.5394 18.3192 21.2823 17.0578 21.2823C15.3255 21.2823 14.7322 20.5513 14.5333 19.5602C14.5135 19.4498 14.4558 19.3499 14.3701 19.2775C14.2844 19.2052 14.1762 19.1651 14.0641 19.1641H12.9795C12.9206 19.1627 12.8619 19.173 12.807 19.1943C12.752 19.2156 12.7018 19.2476 12.6591 19.2883C12.6165 19.329 12.5823 19.3777 12.5585 19.4317C12.5348 19.4856 12.5218 19.5437 12.5205 19.6027V19.686C12.64 20.5492 13.0601 21.3425 13.7069 21.9265C14.3536 22.5105 15.1857 22.8476 16.0565 22.8786V24.48C16.0565 24.7418 16.2537 24.939 16.5886 25.0019H17.6307C17.7678 24.9948 17.8976 24.9378 17.9956 24.8417C18.0936 24.7455 18.153 24.6169 18.1628 24.48V22.8854C19.0499 22.8064 19.8773 22.405 20.4885 21.7572C21.0997 21.1093 21.4522 20.26 21.4795 19.3698L21.4064 19.363Z" fill="white"/>
<path d="M13.6185 26.2888C11.697 25.5957 10.036 24.3269 8.86195 22.6553C7.68791 20.9838 7.05794 18.9908 7.05794 16.9481C7.05794 14.9055 7.68791 12.9125 8.86195 11.2409C10.036 9.56937 11.697 8.30056 13.6185 7.60748C13.7448 7.54988 13.8505 7.45498 13.9213 7.33554C13.9921 7.21611 14.0247 7.07786 14.0146 6.93938V6.04178C14.02 5.9224 13.9833 5.80493 13.9109 5.70985C13.8385 5.61478 13.735 5.54814 13.6185 5.52158C13.5223 5.51038 13.4256 5.53655 13.3482 5.59468C10.9334 6.36339 8.82577 7.88033 7.33011 9.92607C5.83445 11.9718 5.02832 14.4403 5.02832 16.9745C5.02832 19.5087 5.83445 21.9771 7.33011 24.0229C8.82577 26.0686 10.9334 27.5856 13.3482 28.3543C13.4411 28.4088 13.5518 28.4242 13.656 28.3971C13.7603 28.37 13.8495 28.3026 13.9041 28.2098C13.9275 28.1703 13.9441 28.1272 13.9534 28.0823C14.0146 28.0211 14.0146 27.9582 14.0146 27.8222V26.894C13.9961 26.7705 13.9512 26.6525 13.8828 26.548C13.8144 26.4435 13.7243 26.3551 13.6185 26.2888ZM20.6497 5.58278C20.5595 5.52833 20.4514 5.5119 20.3491 5.53708C20.2468 5.56226 20.1586 5.62699 20.104 5.71708C20.0799 5.75621 20.0632 5.79942 20.0547 5.84458C19.9918 5.91768 19.9918 5.98058 19.9918 6.11488V7.04308C20.0031 7.17573 20.0447 7.30402 20.1134 7.41807C20.182 7.53213 20.2759 7.62891 20.3879 7.70098C22.2991 8.40009 23.9493 9.66954 25.1152 11.3375C26.2811 13.0054 26.9063 14.9913 26.9063 17.0263C26.9063 19.0614 26.2811 21.0472 25.1152 22.7152C23.9493 24.3831 22.2991 25.6526 20.3879 26.3517C20.2605 26.4079 20.1538 26.5025 20.0828 26.6223C20.0118 26.742 19.9799 26.881 19.9918 27.0198V27.948C19.9835 28.0693 20.0189 28.1897 20.0915 28.2872C20.1641 28.3848 20.2693 28.4532 20.3879 28.4801C20.4812 28.4889 20.5745 28.4629 20.6497 28.407C23.0661 27.6306 25.1737 26.1072 26.6688 24.0564C28.164 22.0055 28.9697 19.5329 28.9697 16.9949C28.9697 14.4568 28.164 11.9843 26.6688 9.9334C25.1737 7.88252 23.0661 6.35917 20.6497 5.58278Z" fill="white"/>
</g>
<defs>
<clipPath id="clip0_953_131">
<rect width="34" height="34" fill="white"/>
</clipPath>
</defs>
</svg>
