<svg width="32" height="32" viewBox="0 0 32 32" fill="none" xmlns="http://www.w3.org/2000/svg">
<g clip-path="url(#clip0_1375_1382)">
<path d="M16 32C24.8366 32 32 24.8366 32 16C32 7.16344 24.8366 0 16 0C7.16344 0 0 7.16344 0 16C0 24.8366 7.16344 32 16 32Z" fill="#2E79CC"/>
<path d="M20.1464 18.224C20.1464 16.0352 18.8408 15.2784 16.22 14.9744C14.3544 14.7184 13.98 14.2288 13.98 13.344C13.98 12.4592 14.6088 11.904 15.8552 11.904C16.3002 11.8343 16.7553 11.9297 17.1349 12.1723C17.5144 12.4148 17.7922 12.7877 17.916 13.2208C17.9485 13.3129 18.0084 13.3928 18.0876 13.45C18.1668 13.5072 18.2615 13.5388 18.3592 13.5408H19.34C19.4529 13.5412 19.5616 13.4974 19.6426 13.4188C19.7237 13.3401 19.7707 13.2329 19.7736 13.12V13.0912C19.654 12.4142 19.3137 11.796 18.8057 11.3328C18.2977 10.8697 17.6507 10.5878 16.9656 10.5312V8.97596C16.9656 8.72956 16.78 8.54396 16.4664 8.47516H15.484C15.2392 8.47516 15.052 8.66076 14.9928 8.97596V10.416C14.1916 10.4471 13.4316 10.7788 12.8641 11.3452C12.2965 11.9115 11.9632 12.6709 11.9304 13.472C11.9304 15.5344 13.1768 16.352 15.7976 16.6624C17.5448 16.9664 18.1144 17.3504 18.1144 18.3408C18.1144 19.3312 17.2408 20.0304 16.0536 20.0304C14.4232 20.0304 13.8648 19.3424 13.6776 18.4096C13.659 18.3057 13.6046 18.2116 13.524 18.1435C13.4434 18.0755 13.3415 18.0377 13.236 18.0368H12.2152C12.1597 18.0355 12.1045 18.0452 12.0528 18.0652C12.0011 18.0853 11.9538 18.1153 11.9137 18.1537C11.8736 18.192 11.8414 18.2379 11.819 18.2886C11.7966 18.3394 11.7844 18.3941 11.7832 18.4496V18.528C11.8957 19.3404 12.291 20.0871 12.8998 20.6367C13.5085 21.1863 14.2916 21.5036 15.1112 21.5328V23.04C15.1112 23.2864 15.2968 23.472 15.612 23.5312H16.5928C16.7218 23.5245 16.844 23.4708 16.9362 23.3804C17.0284 23.2899 17.0844 23.1688 17.0936 23.04V21.5392C17.9285 21.4648 18.7073 21.087 19.2825 20.4773C19.8577 19.8676 20.1895 19.0682 20.2152 18.2304L20.1464 18.224Z" fill="white"/>
<path d="M12.8173 24.7424C11.0088 24.0901 9.44553 22.8959 8.34055 21.3227C7.23556 19.7494 6.64266 17.8737 6.64266 15.9512C6.64266 14.0287 7.23556 12.1529 8.34055 10.5797C9.44553 9.00647 11.0088 7.81229 12.8173 7.15998C12.9362 7.10577 13.0356 7.01645 13.1023 6.90404C13.1689 6.79163 13.1996 6.66152 13.1901 6.53118V5.68638C13.1952 5.57403 13.1606 5.46346 13.0925 5.37398C13.0243 5.2845 12.9269 5.22179 12.8173 5.19678C12.7268 5.18624 12.6357 5.21088 12.5629 5.26558C10.2902 5.98908 8.30649 7.41679 6.89881 9.34219C5.49113 11.2676 4.73242 13.5909 4.73242 15.976C4.73242 18.3611 5.49113 20.6844 6.89881 22.6098C8.30649 24.5352 10.2902 25.9629 12.5629 26.6864C12.6503 26.7377 12.7545 26.7522 12.8526 26.7267C12.9507 26.7012 13.0347 26.6378 13.0861 26.5504C13.1081 26.5132 13.1238 26.4727 13.1325 26.4304C13.1901 26.3728 13.1901 26.3136 13.1901 26.1856V25.312C13.1727 25.1958 13.1304 25.0847 13.0661 24.9864C13.0017 24.888 12.9168 24.8048 12.8173 24.7424ZM19.4349 5.25438C19.35 5.20314 19.2482 5.18767 19.1519 5.21137C19.0557 5.23507 18.9727 5.29599 18.9213 5.38078C18.8986 5.41761 18.8829 5.45828 18.8749 5.50078C18.8157 5.56958 18.8157 5.62878 18.8157 5.75518V6.62878C18.8263 6.75363 18.8655 6.87437 18.9301 6.98172C18.9947 7.08907 19.0831 7.18016 19.1885 7.24798C20.9872 7.90597 22.5404 9.10075 23.6377 10.6706C24.735 12.2404 25.3235 14.1095 25.3235 16.0248C25.3235 17.9401 24.735 19.8092 23.6377 21.379C22.5404 22.9488 20.9872 24.1436 19.1885 24.8016C19.0686 24.8545 18.9682 24.9435 18.9013 25.0562C18.8345 25.169 18.8045 25.2998 18.8157 25.4304V26.304C18.8079 26.4182 18.8412 26.5314 18.9095 26.6233C18.9779 26.7151 19.0768 26.7795 19.1885 26.8048C19.2763 26.8131 19.3641 26.7886 19.4349 26.736C21.7091 26.0053 23.6927 24.5715 25.1 22.6413C26.5072 20.711 27.2654 18.3839 27.2654 15.9952C27.2654 13.6064 26.5072 11.2793 25.1 9.34909C23.6927 7.41885 21.7091 5.9851 19.4349 5.25438Z" fill="white"/>
</g>
<defs>
<clipPath id="clip0_1375_1382">
<rect width="32" height="32" fill="white"/>
</clipPath>
</defs>
</svg>
