<svg width="22" height="21" viewBox="0 0 22 21" fill="none" xmlns="http://www.w3.org/2000/svg">
<path d="M15.0216 12.624C15.0216 10.5 13.7416 9.77201 11.1816 9.46801C9.35357 9.22501 8.98857 8.74001 8.98857 7.89001C8.98857 7.04001 9.59857 6.49401 10.8166 6.49401C11.9136 6.49401 12.5236 6.85801 12.8276 7.76901C12.8595 7.85694 12.9175 7.93305 12.9938 7.98718C13.07 8.04132 13.161 8.07091 13.2546 8.07201H14.2296C14.2859 8.07351 14.3419 8.06356 14.3943 8.04276C14.4466 8.02196 14.4942 7.99074 14.5341 7.951C14.5741 7.91126 14.6055 7.86382 14.6265 7.81157C14.6476 7.75931 14.6578 7.70333 14.6566 7.64701V7.58701C14.5374 6.92791 14.2039 6.32661 13.7079 5.87652C13.2119 5.42643 12.5811 5.15276 11.9136 5.09801V3.64201C11.9136 3.39901 11.7306 3.21701 11.4266 3.15601H10.5116C10.2686 3.15601 10.0856 3.33801 10.0246 3.64201V5.03801C8.19557 5.28001 7.03857 6.49401 7.03857 8.01201C7.03857 10.014 8.25657 10.803 10.8166 11.107C12.5236 11.41 13.0716 11.775 13.0716 12.746C13.0716 13.716 12.2186 14.384 11.0606 14.384C9.47557 14.384 8.92757 13.717 8.74457 12.806C8.68457 12.564 8.50057 12.442 8.31757 12.442H7.28157C7.22534 12.4406 7.16941 12.4507 7.11718 12.4716C7.06494 12.4924 7.01748 12.5237 6.97766 12.5634C6.93784 12.6031 6.90649 12.6505 6.8855 12.7027C6.86452 12.7549 6.85434 12.8108 6.85557 12.867V12.927C7.09857 14.445 8.07457 15.537 10.0856 15.841V17.298C10.0856 17.54 10.2686 17.723 10.5726 17.783H11.4876C11.7306 17.783 11.9136 17.601 11.9746 17.298V15.84C13.8036 15.537 15.0216 14.262 15.0216 12.623V12.624Z" fill="white"/>
<path d="M7.89131 18.997C3.13731 17.297 0.69931 12.017 2.46731 7.344C3.38131 4.794 5.39231 2.853 7.89131 1.942C8.13531 1.821 8.25631 1.639 8.25631 1.335V0.485C8.25631 0.243 8.13531 0.061 7.89131 0C7.83031 0 7.70831 -5.58794e-08 7.64731 0.0599999C6.27574 0.488324 5.00244 1.18373 3.90073 2.10617C2.79902 3.02862 1.89066 4.15988 1.22795 5.43483C0.565247 6.70977 0.161282 8.10322 0.0393184 9.53493C-0.0826447 10.9666 0.0798038 12.4083 0.51731 13.777C1.61331 17.177 4.23431 19.787 7.64731 20.879C7.89131 21 8.13531 20.879 8.19531 20.636C8.25631 20.576 8.25631 20.514 8.25631 20.393V19.543C8.25631 19.361 8.07431 19.119 7.89131 18.997ZM14.3513 0.0609999C14.1073 -0.0610001 13.8633 0.061 13.8033 0.303C13.7423 0.364 13.7423 0.425 13.7423 0.546V1.396C13.7423 1.639 13.9243 1.881 14.1073 2.003C18.8613 3.703 21.2993 8.983 19.5313 13.656C18.6173 16.206 16.6063 18.147 14.1073 19.058C13.8633 19.179 13.7423 19.361 13.7423 19.665V20.515C13.7423 20.757 13.8633 20.939 14.1073 21C14.1683 21 14.2903 21 14.3513 20.94C15.7229 20.5117 16.9962 19.8163 18.0979 18.8938C19.1996 17.9714 20.108 16.8401 20.7707 15.5652C21.4334 14.2902 21.8373 12.8968 21.9593 11.4651C22.0813 10.0334 21.9188 8.59167 21.4813 7.223C20.3853 3.763 17.7033 1.153 14.3513 0.0609999Z" fill="white"/>
</svg>
