<svg width="23" height="22" viewBox="0 0 23 22" fill="none" xmlns="http://www.w3.org/2000/svg">
<path d="M15.414 13.0296C15.414 10.8408 14.1084 10.084 11.4876 9.77996C9.62198 9.52396 9.24758 9.03436 9.24758 8.14956C9.24758 7.26476 9.87638 6.70956 11.1228 6.70956C11.5678 6.63992 12.0229 6.73534 12.4024 6.97786C12.782 7.22039 13.0598 7.59328 13.1836 8.02636C13.2161 8.11846 13.276 8.19844 13.3552 8.25562C13.4344 8.3128 13.5291 8.34445 13.6268 8.34636H14.6076C14.7205 8.34682 14.8291 8.30303 14.9102 8.22438C14.9912 8.14572 15.0383 8.03846 15.0412 7.92556V7.89676C14.9216 7.21984 14.5812 6.60156 14.0733 6.13844C13.5653 5.67532 12.9182 5.39343 12.2332 5.33676V3.78156C12.2332 3.53516 12.0476 3.34956 11.734 3.28076H10.7516C10.5068 3.28076 10.3196 3.46636 10.2604 3.78156V5.22156C9.45922 5.25267 8.69918 5.58444 8.13165 6.15078C7.56413 6.71712 7.23077 7.47647 7.19798 8.27756C7.19798 10.34 8.44438 11.1576 11.0652 11.468C12.8124 11.772 13.382 12.156 13.382 13.1464C13.382 14.1368 12.5084 14.836 11.3212 14.836C9.69078 14.836 9.13238 14.148 8.94518 13.2152C8.92654 13.1113 8.87222 13.0172 8.79159 12.9491C8.71096 12.8811 8.60909 12.8433 8.50358 12.8424H7.48278C7.42731 12.8411 7.37212 12.8508 7.32039 12.8708C7.26865 12.8909 7.22137 12.9209 7.18126 12.9593C7.14114 12.9976 7.10897 13.0435 7.08658 13.0942C7.06419 13.145 7.05203 13.1997 7.05078 13.2552V13.3336C7.16323 14.146 7.55861 14.8927 8.16734 15.4423C8.77608 15.9919 9.55916 16.3092 10.3788 16.3384V17.8456C10.3788 18.092 10.5644 18.2776 10.8796 18.3368H11.8604C11.9894 18.3301 12.1115 18.2764 12.2038 18.186C12.296 18.0955 12.352 17.9744 12.3612 17.8456V16.3448C13.1961 16.2704 13.9749 15.8926 14.5501 15.2829C15.1253 14.6732 15.4571 13.8738 15.4828 13.036L15.414 13.0296Z" fill="white"/>
<path d="M8.08486 19.548C6.2764 18.8957 4.71311 17.7015 3.60813 16.1283C2.50314 14.555 1.91023 12.6793 1.91023 10.7568C1.91023 8.83427 2.50314 6.95854 3.60813 5.3853C4.71311 3.81207 6.2764 2.6179 8.08486 1.96559C8.20377 1.91137 8.30323 1.82206 8.36987 1.70965C8.43652 1.59724 8.46715 1.46712 8.45766 1.33679V0.491986C8.46273 0.379631 8.42818 0.269066 8.36004 0.179585C8.29191 0.0901041 8.19452 0.0273893 8.08486 0.00238547C7.99438 -0.00815208 7.9033 0.0164783 7.83046 0.0711855C5.55773 0.794683 3.57407 2.22239 2.16639 4.14779C0.758711 6.0732 0 8.39648 0 10.7816C0 13.1667 0.758711 15.49 2.16639 17.4154C3.57407 19.3408 5.55773 20.7685 7.83046 21.492C7.91789 21.5433 8.02211 21.5578 8.12022 21.5323C8.21832 21.5068 8.30229 21.4434 8.35366 21.356C8.37566 21.3188 8.39134 21.2783 8.40006 21.236C8.45766 21.1784 8.45766 21.1192 8.45766 20.9912V20.1176C8.4403 20.0014 8.39798 19.8903 8.33363 19.792C8.26928 19.6936 8.18442 19.6104 8.08486 19.548ZM14.7025 0.0599856C14.6176 0.00874529 14.5158 -0.00672349 14.4195 0.0169735C14.3232 0.0406705 14.2403 0.101598 14.1889 0.186386C14.1662 0.223212 14.1505 0.263885 14.1425 0.306386C14.0833 0.375186 14.0833 0.434386 14.0833 0.560786V1.43439C14.0939 1.55923 14.1331 1.67998 14.1977 1.78732C14.2623 1.89467 14.3507 1.98576 14.4561 2.05359C16.2548 2.71158 17.808 3.90635 18.9053 5.47617C20.0026 7.046 20.5911 8.91507 20.5911 10.8304C20.5911 12.7457 20.0026 14.6148 18.9053 16.1846C17.808 17.7544 16.2548 18.9492 14.4561 19.6072C14.3361 19.6601 14.2357 19.7491 14.1689 19.8618C14.1021 19.9746 14.0721 20.1054 14.0833 20.236V21.1096C14.0755 21.2238 14.1088 21.337 14.1771 21.4289C14.2455 21.5207 14.3444 21.5851 14.4561 21.6104C14.5439 21.6187 14.6317 21.5942 14.7025 21.5416C16.9767 20.8109 18.9603 19.3771 20.3676 17.4469C21.7748 15.5166 22.533 13.1895 22.533 10.8008C22.533 8.41203 21.7748 6.08493 20.3676 4.15469C18.9603 2.22445 16.9767 0.790706 14.7025 0.0599856Z" fill="white"/>
</svg>
