<svg width="32" height="32" viewBox="0 0 32 32" fill="none" xmlns="http://www.w3.org/2000/svg">
<g clip-path="url(#clip0_1375_1369)">
<path d="M16 32C24.8366 32 32 24.8366 32 16C32 7.16344 24.8366 0 16 0C7.16344 0 0 7.16344 0 16C0 24.8366 7.16344 32 16 32Z" fill="#59AF99"/>
<path d="M17.6608 14.0304V12.1408H21.96V9.16H10.0288V12.1408H14.3392V14.0304C10.728 14.2048 8.01758 14.9296 8.01758 15.7904C8.01758 16.6512 10.7248 17.3792 14.3392 17.5504V23.7904H17.6608V17.5504C21.272 17.3776 23.9824 16.6528 23.9824 15.7904C23.9824 14.928 21.28 14.2048 17.6608 14.0304ZM16 17C12.0896 17 8.91998 16.3952 8.91998 15.6672C8.91998 15.0416 11.2288 14.5152 14.336 14.3744V16.5088C14.8704 16.5328 15.4256 16.5472 15.9968 16.5472C16.568 16.5472 17.1264 16.5328 17.6576 16.5088V14.3744C20.7648 14.5152 23.0736 15.0416 23.0736 15.6672C23.08 16.4032 19.9104 17 16 17Z" fill="white"/>
</g>
<defs>
<clipPath id="clip0_1375_1369">
<rect width="32" height="32" fill="white"/>
</clipPath>
</defs>
</svg>
