<svg width="16" height="15" viewBox="0 0 16 15" fill="none" xmlns="http://www.w3.org/2000/svg">
<path d="M9.6432 4.8704V2.9808H13.9424V0H2.0112V2.9808H6.3216V4.8704C2.7104 5.0448 0 5.7696 0 6.6304C0 7.4912 2.7072 8.2192 6.3216 8.3904V14.6304H9.6432V8.3904C13.2544 8.2176 15.9648 7.4928 15.9648 6.6304C15.9648 5.768 13.2624 5.0448 9.6432 4.8704ZM7.9824 7.84C4.072 7.84 0.9024 7.2352 0.9024 6.5072C0.9024 5.8816 3.2112 5.3552 6.3184 5.2144V7.3488C6.8528 7.3728 7.408 7.3872 7.9792 7.3872C8.5504 7.3872 9.1088 7.3728 9.64 7.3488V5.2144C12.7472 5.3552 15.056 5.8816 15.056 6.5072C15.0624 7.2432 11.8928 7.84 7.9824 7.84Z" fill="white"/>
</svg>
