<svg width="16" height="21" viewBox="0 0 16 21" fill="none" xmlns="http://www.w3.org/2000/svg">
<path d="M2.95193 13.1195C2.86494 13.3355 2.64445 13.6595 2.14743 13.5365C2.16497 13.562 0.871473 13.218 0.871473 13.218L0 15.2274L2.28444 15.797C2.70944 15.9035 3.12596 16.0149 3.53594 16.12L2.80942 19.0369L4.56292 19.4744L5.28241 16.5884C5.76143 16.7184 6.22639 16.8384 6.68139 16.9514L5.96438 19.8239L7.7199 20.2614L8.44638 17.3499C11.4399 17.9164 13.6908 17.6879 14.6383 14.9804C15.4018 12.8005 14.6003 11.543 13.0253 10.723C14.1724 10.4585 15.0363 9.70399 15.2668 8.1455C15.5853 6.01653 13.9643 4.87204 11.7478 4.10853L12.4668 1.22453L10.7113 0.787039L10.0113 3.59501C9.54984 3.48001 9.07582 3.37151 8.60486 3.26399L9.30983 0.437494L7.55534 0L6.83585 2.88297C6.45383 2.79597 6.07888 2.70993 5.71486 2.61946L5.71684 2.61045L3.29586 2.00595L2.82883 3.88094C2.82883 3.88094 4.13134 4.17944 4.10383 4.19793C4.81484 4.37544 4.94333 4.8459 4.92186 5.21895L2.95193 13.1195ZM11.2558 13.77C10.7134 15.9499 7.04289 14.7714 5.85289 14.4759L6.8169 10.6115C8.00686 10.9085 11.8228 11.4965 11.2558 13.77ZM11.7988 8.11403C11.3038 10.097 8.24885 9.08953 7.25787 8.84253L8.13187 5.33753C9.12285 5.58454 12.3143 6.04553 11.7988 8.11403Z" fill="white"/>
</svg>
