<svg width="47" height="16" viewBox="0 0 47 16" fill="none" xmlns="http://www.w3.org/2000/svg">
<path d="M24.3073 4.85215C24.2805 6.96635 26.1914 8.1462 27.631 8.84765C29.11 9.5674 29.6068 10.0289 29.6012 10.6725C29.5899 11.6576 28.4213 12.0922 27.3275 12.1092C25.4194 12.1388 24.3101 11.594 23.428 11.1819L22.7407 14.3984C23.6256 14.8062 25.2642 15.1619 26.9634 15.1774C30.9518 15.1774 33.5614 13.2086 33.5755 10.1559C33.591 6.28185 28.2167 6.0673 28.2533 4.3356C28.266 3.8106 28.7671 3.2503 29.8651 3.10775C30.4085 3.0358 31.9087 2.98075 33.6093 3.76405L34.2769 0.65205C33.3624 0.319 32.1867 0 30.7232 0C26.969 0 24.3285 1.99565 24.3073 4.85215ZM40.6913 0.26815C39.9632 0.26815 39.3492 0.693001 39.0754 1.345L33.3778 14.9488H37.3634L38.1567 12.757H43.0271L43.4872 14.9488H47L43.9346 0.26815H40.6913ZM41.2489 4.234L42.3991 9.74665H39.249L41.2489 4.234ZM19.4749 0.26815L16.3333 14.9488H20.1311L23.2714 0.26815H19.4749ZM13.8564 0.26815L9.9033 10.2604L8.30425 1.7642C8.11655 0.81575 7.3756 0.26815 6.5528 0.26815H0.090325L0 0.694401C1.32665 0.982301 2.83394 1.44665 3.74707 1.9434C4.30596 2.24685 4.46544 2.5122 4.6489 3.23335L7.6776 14.9488H11.6915L17.8448 0.26815H13.8564Z" fill="#656565"/>
</svg>
