<svg width="24" height="24" viewBox="0 0 24 24" fill="none" xmlns="http://www.w3.org/2000/svg">
<path fill-rule="evenodd" clip-rule="evenodd" d="M17.0769 0.527472C16.9864 0.310327 16.8107 0.139909 16.5909 0.0561596C16.3711 -0.0275897 16.1265 -0.0173099 15.9144 0.0845902L8.95651 3.42857H18.2858L17.0769 0.527472ZM3 8.14286C3 6.72269 4.15126 5.57143 5.57143 5.57143H19.2857C19.9677 5.57143 20.6218 5.84235 21.1041 6.32458C21.5863 6.80681 21.8571 7.46086 21.8571 8.14286V9H18.8571C17.2003 9 15.8571 10.3431 15.8571 12V14.1429C15.8571 15.7997 17.2003 17.1429 18.8571 17.1429H21.8571V18.4286C21.8571 19.1105 21.5863 19.7647 21.1041 20.2469C20.6218 20.7291 19.9677 21 19.2857 21H12.827C12.2342 19.9752 11.1262 19.2857 9.85714 19.2857H3.14707C3.05062 19.013 3 18.7234 3 18.4286V8.14286ZM23.1429 11.1429H18.8571C18.3838 11.1429 18 11.5266 18 12V14.1429C18 14.6162 18.3838 15 18.8571 15H23.1429C23.6162 15 24 14.6162 24 14.1429V12C24 11.5266 23.6162 11.1429 23.1429 11.1429ZM11.1429 22.7143C11.1429 22.0042 10.5672 21.4286 9.85714 21.4286H1.28571C0.575633 21.4286 0 22.0042 0 22.7143C0 23.4243 0.575633 24 1.28571 24H9.85714C10.5672 24 11.1429 23.4243 11.1429 22.7143Z" fill="white"/>
</svg>
