<svg width="32" height="32" viewBox="0 0 32 32" fill="none" xmlns="http://www.w3.org/2000/svg">
<rect x="5.33398" y="8" width="21.3333" height="17.3333" fill="#D9D9D9"/>
<path d="M16.0007 1.33331C7.89398 1.33331 1.33398 7.89331 1.33398 16C1.33398 24.1066 7.89398 30.6666 16.0007 30.6666C24.1073 30.6666 30.6673 24.1066 30.6673 16C30.6673 7.89331 24.1073 1.33331 16.0007 1.33331ZM22.5873 24L18.1207 19.5333C16.9473 18.36 15.054 18.36 13.8807 19.5333L9.41398 24H6.58732L12.4673 18.12C13.4407 17.1466 14.7207 16.6533 16.0007 16.6533C17.2807 16.6533 18.5607 17.1466 19.534 18.12L25.414 24H22.5873ZM19.534 13.88C18.5607 14.8533 17.2807 15.3466 16.0007 15.3466C14.7207 15.3466 13.4407 14.8533 12.4673 13.88L6.58732 7.99998H9.41398L13.8807 12.4666C15.054 13.64 16.9473 13.64 18.1207 12.4666L22.5873 7.99998H25.414L19.534 13.88Z" fill="black"/>
</svg>
